G04 #@! TF.GenerationSoftware,KiCad,Pcbnew,5.1.5+dfsg1-2build2*
G04 #@! TF.CreationDate,2020-12-01T23:40:43+01:00*
G04 #@! TF.ProjectId,ATU,4154552e-6b69-4636-9164-5f7063625858,0*
G04 #@! TF.SameCoordinates,Original*
G04 #@! TF.FileFunction,Legend,Top*
G04 #@! TF.FilePolarity,Positive*
%FSLAX46Y46*%
G04 Gerber Fmt 4.6, Leading zero omitted, Abs format (unit mm)*
G04 Created by KiCad (PCBNEW 5.1.5+dfsg1-2build2) date 2020-12-01 23:40:43*
%MOMM*%
%LPD*%
G04 APERTURE LIST*
%ADD10C,0.150000*%
%ADD11C,0.300000*%
%ADD12C,0.120000*%
G04 APERTURE END LIST*
D10*
X59656904Y-134832380D02*
X59323571Y-134356190D01*
X59085476Y-134832380D02*
X59085476Y-133832380D01*
X59466428Y-133832380D01*
X59561666Y-133880000D01*
X59609285Y-133927619D01*
X59656904Y-134022857D01*
X59656904Y-134165714D01*
X59609285Y-134260952D01*
X59561666Y-134308571D01*
X59466428Y-134356190D01*
X59085476Y-134356190D01*
X60466428Y-134784761D02*
X60371190Y-134832380D01*
X60180714Y-134832380D01*
X60085476Y-134784761D01*
X60037857Y-134689523D01*
X60037857Y-134308571D01*
X60085476Y-134213333D01*
X60180714Y-134165714D01*
X60371190Y-134165714D01*
X60466428Y-134213333D01*
X60514047Y-134308571D01*
X60514047Y-134403809D01*
X60037857Y-134499047D01*
X60895000Y-134784761D02*
X60990238Y-134832380D01*
X61180714Y-134832380D01*
X61275952Y-134784761D01*
X61323571Y-134689523D01*
X61323571Y-134641904D01*
X61275952Y-134546666D01*
X61180714Y-134499047D01*
X61037857Y-134499047D01*
X60942619Y-134451428D01*
X60895000Y-134356190D01*
X60895000Y-134308571D01*
X60942619Y-134213333D01*
X61037857Y-134165714D01*
X61180714Y-134165714D01*
X61275952Y-134213333D01*
X62133095Y-134784761D02*
X62037857Y-134832380D01*
X61847380Y-134832380D01*
X61752142Y-134784761D01*
X61704523Y-134689523D01*
X61704523Y-134308571D01*
X61752142Y-134213333D01*
X61847380Y-134165714D01*
X62037857Y-134165714D01*
X62133095Y-134213333D01*
X62180714Y-134308571D01*
X62180714Y-134403809D01*
X61704523Y-134499047D01*
X62466428Y-134165714D02*
X62847380Y-134165714D01*
X62609285Y-133832380D02*
X62609285Y-134689523D01*
X62656904Y-134784761D01*
X62752142Y-134832380D01*
X62847380Y-134832380D01*
X77055952Y-134467380D02*
X77627380Y-134467380D01*
X77341666Y-135467380D02*
X77341666Y-134467380D01*
X78389285Y-134800714D02*
X78389285Y-135467380D01*
X77960714Y-134800714D02*
X77960714Y-135324523D01*
X78008333Y-135419761D01*
X78103571Y-135467380D01*
X78246428Y-135467380D01*
X78341666Y-135419761D01*
X78389285Y-135372142D01*
X78865476Y-134800714D02*
X78865476Y-135467380D01*
X78865476Y-134895952D02*
X78913095Y-134848333D01*
X79008333Y-134800714D01*
X79151190Y-134800714D01*
X79246428Y-134848333D01*
X79294047Y-134943571D01*
X79294047Y-135467380D01*
X80151190Y-135419761D02*
X80055952Y-135467380D01*
X79865476Y-135467380D01*
X79770238Y-135419761D01*
X79722619Y-135324523D01*
X79722619Y-134943571D01*
X79770238Y-134848333D01*
X79865476Y-134800714D01*
X80055952Y-134800714D01*
X80151190Y-134848333D01*
X80198809Y-134943571D01*
X80198809Y-135038809D01*
X79722619Y-135134047D01*
X120283571Y-134165714D02*
X121045476Y-134451428D01*
X120283571Y-134737142D01*
X121474047Y-133927619D02*
X121521666Y-133880000D01*
X121616904Y-133832380D01*
X121855000Y-133832380D01*
X121950238Y-133880000D01*
X121997857Y-133927619D01*
X122045476Y-134022857D01*
X122045476Y-134118095D01*
X121997857Y-134260952D01*
X121426428Y-134832380D01*
X122045476Y-134832380D01*
X122474047Y-134737142D02*
X122521666Y-134784761D01*
X122474047Y-134832380D01*
X122426428Y-134784761D01*
X122474047Y-134737142D01*
X122474047Y-134832380D01*
X123426428Y-133832380D02*
X122950238Y-133832380D01*
X122902619Y-134308571D01*
X122950238Y-134260952D01*
X123045476Y-134213333D01*
X123283571Y-134213333D01*
X123378809Y-134260952D01*
X123426428Y-134308571D01*
X123474047Y-134403809D01*
X123474047Y-134641904D01*
X123426428Y-134737142D01*
X123378809Y-134784761D01*
X123283571Y-134832380D01*
X123045476Y-134832380D01*
X122950238Y-134784761D01*
X122902619Y-134737142D01*
X113425476Y-134165714D02*
X112663571Y-134451428D01*
X113425476Y-134737142D01*
X113854047Y-133927619D02*
X113901666Y-133880000D01*
X113996904Y-133832380D01*
X114235000Y-133832380D01*
X114330238Y-133880000D01*
X114377857Y-133927619D01*
X114425476Y-134022857D01*
X114425476Y-134118095D01*
X114377857Y-134260952D01*
X113806428Y-134832380D01*
X114425476Y-134832380D01*
X114854047Y-134737142D02*
X114901666Y-134784761D01*
X114854047Y-134832380D01*
X114806428Y-134784761D01*
X114854047Y-134737142D01*
X114854047Y-134832380D01*
X115806428Y-133832380D02*
X115330238Y-133832380D01*
X115282619Y-134308571D01*
X115330238Y-134260952D01*
X115425476Y-134213333D01*
X115663571Y-134213333D01*
X115758809Y-134260952D01*
X115806428Y-134308571D01*
X115854047Y-134403809D01*
X115854047Y-134641904D01*
X115806428Y-134737142D01*
X115758809Y-134784761D01*
X115663571Y-134832380D01*
X115425476Y-134832380D01*
X115330238Y-134784761D01*
X115282619Y-134737142D01*
X105805476Y-134165714D02*
X105043571Y-134451428D01*
X105805476Y-134737142D01*
X106234047Y-133927619D02*
X106281666Y-133880000D01*
X106376904Y-133832380D01*
X106615000Y-133832380D01*
X106710238Y-133880000D01*
X106757857Y-133927619D01*
X106805476Y-134022857D01*
X106805476Y-134118095D01*
X106757857Y-134260952D01*
X106186428Y-134832380D01*
X106805476Y-134832380D01*
X107234047Y-134737142D02*
X107281666Y-134784761D01*
X107234047Y-134832380D01*
X107186428Y-134784761D01*
X107234047Y-134737142D01*
X107234047Y-134832380D01*
X107900714Y-133832380D02*
X107995952Y-133832380D01*
X108091190Y-133880000D01*
X108138809Y-133927619D01*
X108186428Y-134022857D01*
X108234047Y-134213333D01*
X108234047Y-134451428D01*
X108186428Y-134641904D01*
X108138809Y-134737142D01*
X108091190Y-134784761D01*
X107995952Y-134832380D01*
X107900714Y-134832380D01*
X107805476Y-134784761D01*
X107757857Y-134737142D01*
X107710238Y-134641904D01*
X107662619Y-134451428D01*
X107662619Y-134213333D01*
X107710238Y-134022857D01*
X107757857Y-133927619D01*
X107805476Y-133880000D01*
X107900714Y-133832380D01*
X98185476Y-134165714D02*
X97423571Y-134451428D01*
X98185476Y-134737142D01*
X99185476Y-134832380D02*
X98614047Y-134832380D01*
X98899761Y-134832380D02*
X98899761Y-133832380D01*
X98804523Y-133975238D01*
X98709285Y-134070476D01*
X98614047Y-134118095D01*
X99614047Y-134737142D02*
X99661666Y-134784761D01*
X99614047Y-134832380D01*
X99566428Y-134784761D01*
X99614047Y-134737142D01*
X99614047Y-134832380D01*
X100566428Y-133832380D02*
X100090238Y-133832380D01*
X100042619Y-134308571D01*
X100090238Y-134260952D01*
X100185476Y-134213333D01*
X100423571Y-134213333D01*
X100518809Y-134260952D01*
X100566428Y-134308571D01*
X100614047Y-134403809D01*
X100614047Y-134641904D01*
X100566428Y-134737142D01*
X100518809Y-134784761D01*
X100423571Y-134832380D01*
X100185476Y-134832380D01*
X100090238Y-134784761D01*
X100042619Y-134737142D01*
X90890952Y-134546666D02*
X91367142Y-134546666D01*
X90795714Y-134832380D02*
X91129047Y-133832380D01*
X91462380Y-134832380D01*
X92367142Y-134737142D02*
X92319523Y-134784761D01*
X92176666Y-134832380D01*
X92081428Y-134832380D01*
X91938571Y-134784761D01*
X91843333Y-134689523D01*
X91795714Y-134594285D01*
X91748095Y-134403809D01*
X91748095Y-134260952D01*
X91795714Y-134070476D01*
X91843333Y-133975238D01*
X91938571Y-133880000D01*
X92081428Y-133832380D01*
X92176666Y-133832380D01*
X92319523Y-133880000D01*
X92367142Y-133927619D01*
X92652857Y-133832380D02*
X93224285Y-133832380D01*
X92938571Y-134832380D02*
X92938571Y-133832380D01*
D11*
X130063333Y-124281190D02*
X130063333Y-123328809D01*
X130634761Y-124471666D02*
X128634761Y-123805000D01*
X130634761Y-123138333D01*
X129301428Y-121614523D02*
X130634761Y-121614523D01*
X129301428Y-122471666D02*
X130349047Y-122471666D01*
X130539523Y-122376428D01*
X130634761Y-122185952D01*
X130634761Y-121900238D01*
X130539523Y-121709761D01*
X130444285Y-121614523D01*
X129301428Y-120947857D02*
X129301428Y-120185952D01*
X128634761Y-120662142D02*
X130349047Y-120662142D01*
X130539523Y-120566904D01*
X130634761Y-120376428D01*
X130634761Y-120185952D01*
X130634761Y-119233571D02*
X130539523Y-119424047D01*
X130444285Y-119519285D01*
X130253809Y-119614523D01*
X129682380Y-119614523D01*
X129491904Y-119519285D01*
X129396666Y-119424047D01*
X129301428Y-119233571D01*
X129301428Y-118947857D01*
X129396666Y-118757380D01*
X129491904Y-118662142D01*
X129682380Y-118566904D01*
X130253809Y-118566904D01*
X130444285Y-118662142D01*
X130539523Y-118757380D01*
X130634761Y-118947857D01*
X130634761Y-119233571D01*
X130634761Y-117709761D02*
X129301428Y-117709761D01*
X129491904Y-117709761D02*
X129396666Y-117614523D01*
X129301428Y-117424047D01*
X129301428Y-117138333D01*
X129396666Y-116947857D01*
X129587142Y-116852619D01*
X130634761Y-116852619D01*
X129587142Y-116852619D02*
X129396666Y-116757380D01*
X129301428Y-116566904D01*
X129301428Y-116281190D01*
X129396666Y-116090714D01*
X129587142Y-115995476D01*
X130634761Y-115995476D01*
X130634761Y-114185952D02*
X129587142Y-114185952D01*
X129396666Y-114281190D01*
X129301428Y-114471666D01*
X129301428Y-114852619D01*
X129396666Y-115043095D01*
X130539523Y-114185952D02*
X130634761Y-114376428D01*
X130634761Y-114852619D01*
X130539523Y-115043095D01*
X130349047Y-115138333D01*
X130158571Y-115138333D01*
X129968095Y-115043095D01*
X129872857Y-114852619D01*
X129872857Y-114376428D01*
X129777619Y-114185952D01*
X129301428Y-113519285D02*
X129301428Y-112757380D01*
X128634761Y-113233571D02*
X130349047Y-113233571D01*
X130539523Y-113138333D01*
X130634761Y-112947857D01*
X130634761Y-112757380D01*
X130634761Y-112090714D02*
X129301428Y-112090714D01*
X128634761Y-112090714D02*
X128730000Y-112185952D01*
X128825238Y-112090714D01*
X128730000Y-111995476D01*
X128634761Y-112090714D01*
X128825238Y-112090714D01*
X130539523Y-110281190D02*
X130634761Y-110471666D01*
X130634761Y-110852619D01*
X130539523Y-111043095D01*
X130444285Y-111138333D01*
X130253809Y-111233571D01*
X129682380Y-111233571D01*
X129491904Y-111138333D01*
X129396666Y-111043095D01*
X129301428Y-110852619D01*
X129301428Y-110471666D01*
X129396666Y-110281190D01*
X130063333Y-107995476D02*
X130063333Y-107043095D01*
X130634761Y-108185952D02*
X128634761Y-107519285D01*
X130634761Y-106852619D01*
X129301428Y-106185952D02*
X130634761Y-106185952D01*
X129491904Y-106185952D02*
X129396666Y-106090714D01*
X129301428Y-105900238D01*
X129301428Y-105614523D01*
X129396666Y-105424047D01*
X129587142Y-105328809D01*
X130634761Y-105328809D01*
X129301428Y-104662142D02*
X129301428Y-103900238D01*
X128634761Y-104376428D02*
X130349047Y-104376428D01*
X130539523Y-104281190D01*
X130634761Y-104090714D01*
X130634761Y-103900238D01*
X130539523Y-102471666D02*
X130634761Y-102662142D01*
X130634761Y-103043095D01*
X130539523Y-103233571D01*
X130349047Y-103328809D01*
X129587142Y-103328809D01*
X129396666Y-103233571D01*
X129301428Y-103043095D01*
X129301428Y-102662142D01*
X129396666Y-102471666D01*
X129587142Y-102376428D01*
X129777619Y-102376428D01*
X129968095Y-103328809D01*
X129301428Y-101519285D02*
X130634761Y-101519285D01*
X129491904Y-101519285D02*
X129396666Y-101424047D01*
X129301428Y-101233571D01*
X129301428Y-100947857D01*
X129396666Y-100757380D01*
X129587142Y-100662142D01*
X130634761Y-100662142D01*
X129301428Y-99709761D02*
X130634761Y-99709761D01*
X129491904Y-99709761D02*
X129396666Y-99614523D01*
X129301428Y-99424047D01*
X129301428Y-99138333D01*
X129396666Y-98947857D01*
X129587142Y-98852619D01*
X130634761Y-98852619D01*
X130634761Y-97043095D02*
X129587142Y-97043095D01*
X129396666Y-97138333D01*
X129301428Y-97328809D01*
X129301428Y-97709761D01*
X129396666Y-97900238D01*
X130539523Y-97043095D02*
X130634761Y-97233571D01*
X130634761Y-97709761D01*
X130539523Y-97900238D01*
X130349047Y-97995476D01*
X130158571Y-97995476D01*
X129968095Y-97900238D01*
X129872857Y-97709761D01*
X129872857Y-97233571D01*
X129777619Y-97043095D01*
X128634761Y-94852619D02*
X128634761Y-93709761D01*
X130634761Y-94281190D02*
X128634761Y-94281190D01*
X129301428Y-92185952D02*
X130634761Y-92185952D01*
X129301428Y-93043095D02*
X130349047Y-93043095D01*
X130539523Y-92947857D01*
X130634761Y-92757380D01*
X130634761Y-92471666D01*
X130539523Y-92281190D01*
X130444285Y-92185952D01*
X129301428Y-91233571D02*
X130634761Y-91233571D01*
X129491904Y-91233571D02*
X129396666Y-91138333D01*
X129301428Y-90947857D01*
X129301428Y-90662142D01*
X129396666Y-90471666D01*
X129587142Y-90376428D01*
X130634761Y-90376428D01*
X130539523Y-88662142D02*
X130634761Y-88852619D01*
X130634761Y-89233571D01*
X130539523Y-89424047D01*
X130349047Y-89519285D01*
X129587142Y-89519285D01*
X129396666Y-89424047D01*
X129301428Y-89233571D01*
X129301428Y-88852619D01*
X129396666Y-88662142D01*
X129587142Y-88566904D01*
X129777619Y-88566904D01*
X129968095Y-89519285D01*
X130634761Y-87709761D02*
X129301428Y-87709761D01*
X129682380Y-87709761D02*
X129491904Y-87614523D01*
X129396666Y-87519285D01*
X129301428Y-87328809D01*
X129301428Y-87138333D01*
X134696666Y-118138333D02*
X134601428Y-118233571D01*
X134315714Y-118424047D01*
X134125238Y-118519285D01*
X133839523Y-118614523D01*
X133363333Y-118709761D01*
X132982380Y-118709761D01*
X132506190Y-118614523D01*
X132220476Y-118519285D01*
X132030000Y-118424047D01*
X131744285Y-118233571D01*
X131649047Y-118138333D01*
X133839523Y-116519285D02*
X133934761Y-116709761D01*
X133934761Y-117090714D01*
X133839523Y-117281190D01*
X133744285Y-117376428D01*
X133553809Y-117471666D01*
X132982380Y-117471666D01*
X132791904Y-117376428D01*
X132696666Y-117281190D01*
X132601428Y-117090714D01*
X132601428Y-116709761D01*
X132696666Y-116519285D01*
X134696666Y-115852619D02*
X134601428Y-115757380D01*
X134315714Y-115566904D01*
X134125238Y-115471666D01*
X133839523Y-115376428D01*
X133363333Y-115281190D01*
X132982380Y-115281190D01*
X132506190Y-115376428D01*
X132220476Y-115471666D01*
X132030000Y-115566904D01*
X131744285Y-115757380D01*
X131649047Y-115852619D01*
X132125238Y-112900238D02*
X132030000Y-112805000D01*
X131934761Y-112614523D01*
X131934761Y-112138333D01*
X132030000Y-111947857D01*
X132125238Y-111852619D01*
X132315714Y-111757380D01*
X132506190Y-111757380D01*
X132791904Y-111852619D01*
X133934761Y-112995476D01*
X133934761Y-111757380D01*
X131934761Y-110519285D02*
X131934761Y-110328809D01*
X132030000Y-110138333D01*
X132125238Y-110043095D01*
X132315714Y-109947857D01*
X132696666Y-109852619D01*
X133172857Y-109852619D01*
X133553809Y-109947857D01*
X133744285Y-110043095D01*
X133839523Y-110138333D01*
X133934761Y-110328809D01*
X133934761Y-110519285D01*
X133839523Y-110709761D01*
X133744285Y-110805000D01*
X133553809Y-110900238D01*
X133172857Y-110995476D01*
X132696666Y-110995476D01*
X132315714Y-110900238D01*
X132125238Y-110805000D01*
X132030000Y-110709761D01*
X131934761Y-110519285D01*
X132125238Y-109090714D02*
X132030000Y-108995476D01*
X131934761Y-108805000D01*
X131934761Y-108328809D01*
X132030000Y-108138333D01*
X132125238Y-108043095D01*
X132315714Y-107947857D01*
X132506190Y-107947857D01*
X132791904Y-108043095D01*
X133934761Y-109185952D01*
X133934761Y-107947857D01*
X131934761Y-106709761D02*
X131934761Y-106519285D01*
X132030000Y-106328809D01*
X132125238Y-106233571D01*
X132315714Y-106138333D01*
X132696666Y-106043095D01*
X133172857Y-106043095D01*
X133553809Y-106138333D01*
X133744285Y-106233571D01*
X133839523Y-106328809D01*
X133934761Y-106519285D01*
X133934761Y-106709761D01*
X133839523Y-106900238D01*
X133744285Y-106995476D01*
X133553809Y-107090714D01*
X133172857Y-107185952D01*
X132696666Y-107185952D01*
X132315714Y-107090714D01*
X132125238Y-106995476D01*
X132030000Y-106900238D01*
X131934761Y-106709761D01*
X133934761Y-103662142D02*
X131934761Y-103662142D01*
X131934761Y-103185952D01*
X132030000Y-102900238D01*
X132220476Y-102709761D01*
X132410952Y-102614523D01*
X132791904Y-102519285D01*
X133077619Y-102519285D01*
X133458571Y-102614523D01*
X133649047Y-102709761D01*
X133839523Y-102900238D01*
X133934761Y-103185952D01*
X133934761Y-103662142D01*
X133934761Y-101662142D02*
X131934761Y-101662142D01*
X133363333Y-100995476D01*
X131934761Y-100328809D01*
X133934761Y-100328809D01*
X131934761Y-99566904D02*
X131934761Y-98328809D01*
X132696666Y-98995476D01*
X132696666Y-98709761D01*
X132791904Y-98519285D01*
X132887142Y-98424047D01*
X133077619Y-98328809D01*
X133553809Y-98328809D01*
X133744285Y-98424047D01*
X133839523Y-98519285D01*
X133934761Y-98709761D01*
X133934761Y-99281190D01*
X133839523Y-99471666D01*
X133744285Y-99566904D01*
X133934761Y-97471666D02*
X131934761Y-97471666D01*
X133363333Y-96805000D01*
X131934761Y-96138333D01*
X133934761Y-96138333D01*
X133363333Y-95281190D02*
X133363333Y-94328809D01*
X133934761Y-95471666D02*
X131934761Y-94805000D01*
X133934761Y-94138333D01*
X131934761Y-93757380D02*
X131934761Y-92614523D01*
X133934761Y-93185952D02*
X131934761Y-93185952D01*
D12*
X94910000Y-136100436D02*
X94910000Y-137304564D01*
X96730000Y-136100436D02*
X96730000Y-137304564D01*
X93280000Y-139270000D02*
X93280000Y-139270000D01*
X93280000Y-139400000D02*
X93280000Y-139270000D01*
X93280000Y-139400000D02*
X93280000Y-139400000D01*
X93280000Y-139270000D02*
X93280000Y-139400000D01*
X90740000Y-139270000D02*
X90740000Y-139270000D01*
X90740000Y-139400000D02*
X90740000Y-139270000D01*
X90740000Y-139400000D02*
X90740000Y-139400000D01*
X90740000Y-139270000D02*
X90740000Y-139400000D01*
X93570000Y-139400000D02*
X93970000Y-139400000D01*
X93570000Y-140520000D02*
X93570000Y-139400000D01*
X93970000Y-140520000D02*
X93570000Y-140520000D01*
X93970000Y-139400000D02*
X93970000Y-140520000D01*
X90450000Y-139400000D02*
X93570000Y-139400000D01*
X93570000Y-139400000D02*
X93570000Y-143260000D01*
X90450000Y-139400000D02*
X90450000Y-143260000D01*
X93570000Y-143260000D02*
G75*
G02X90450000Y-143260000I-1560000J0D01*
G01*
X87755000Y-58830000D02*
X88755000Y-58330000D01*
X79755000Y-44830000D02*
X78755000Y-45330000D01*
X87755000Y-48330000D02*
X88755000Y-46830000D01*
X79755000Y-55330000D02*
X78755000Y-56830000D01*
X87755000Y-55830000D02*
X79755000Y-55330000D01*
X87755000Y-56330000D02*
X79755000Y-55830000D01*
X87755000Y-56830000D02*
X79755000Y-56330000D01*
X87755000Y-57330000D02*
X79755000Y-56830000D01*
X87755000Y-57830000D02*
X79755000Y-57330000D01*
X87755000Y-58330000D02*
X79755000Y-57830000D01*
X87755000Y-58830000D02*
X79755000Y-58330000D01*
X87755000Y-45330000D02*
X79755000Y-44830000D01*
X87755000Y-45830000D02*
X79755000Y-45330000D01*
X87755000Y-46330000D02*
X79755000Y-45830000D01*
X87755000Y-46830000D02*
X79755000Y-46330000D01*
X87755000Y-47330000D02*
X79755000Y-46830000D01*
X87755000Y-47830000D02*
X79755000Y-47330000D01*
X87755000Y-48330000D02*
X79755000Y-47830000D01*
D11*
X90255000Y-54330000D02*
X77255000Y-54330000D01*
X90255000Y-49330000D02*
X77255000Y-49330000D01*
D12*
X79755000Y-44830000D02*
X87755000Y-44830000D01*
X79755000Y-58830000D02*
X87755000Y-58830000D01*
X87755000Y-58830000D02*
X87755000Y-44830000D01*
X79755000Y-58830000D02*
X79755000Y-44830000D01*
D10*
X83867575Y-126919099D02*
X82859948Y-127926726D01*
X88835000Y-121633476D02*
X88605190Y-121863286D01*
X93961524Y-126760000D02*
X93731714Y-126989810D01*
X88835000Y-131886524D02*
X89064810Y-131656714D01*
X83708476Y-126760000D02*
X83938286Y-126530190D01*
X88835000Y-131886524D02*
X88605190Y-131656714D01*
X93961524Y-126760000D02*
X93731714Y-126530190D01*
X88835000Y-121633476D02*
X89064810Y-121863286D01*
X83708476Y-126760000D02*
X83867575Y-126919099D01*
D12*
X74832064Y-116960000D02*
X73627936Y-116960000D01*
X74832064Y-118780000D02*
X73627936Y-118780000D01*
X118077936Y-118780000D02*
X119282064Y-118780000D01*
X118077936Y-116960000D02*
X119282064Y-116960000D01*
X74832064Y-114420000D02*
X73627936Y-114420000D01*
X74832064Y-116240000D02*
X73627936Y-116240000D01*
X123092064Y-114420000D02*
X121887936Y-114420000D01*
X123092064Y-116240000D02*
X121887936Y-116240000D01*
X49432064Y-116960000D02*
X48227936Y-116960000D01*
X49432064Y-118780000D02*
X48227936Y-118780000D01*
X112997936Y-118780000D02*
X114202064Y-118780000D01*
X112997936Y-116960000D02*
X114202064Y-116960000D01*
X49432064Y-114420000D02*
X48227936Y-114420000D01*
X49432064Y-116240000D02*
X48227936Y-116240000D01*
X118012064Y-114420000D02*
X116807936Y-114420000D01*
X118012064Y-116240000D02*
X116807936Y-116240000D01*
X54512064Y-116960000D02*
X53307936Y-116960000D01*
X54512064Y-118780000D02*
X53307936Y-118780000D01*
X107917936Y-118780000D02*
X109122064Y-118780000D01*
X107917936Y-116960000D02*
X109122064Y-116960000D01*
X54512064Y-114420000D02*
X53307936Y-114420000D01*
X54512064Y-116240000D02*
X53307936Y-116240000D01*
X112932064Y-114420000D02*
X111727936Y-114420000D01*
X112932064Y-116240000D02*
X111727936Y-116240000D01*
X59592064Y-116960000D02*
X58387936Y-116960000D01*
X59592064Y-118780000D02*
X58387936Y-118780000D01*
X102837936Y-118780000D02*
X104042064Y-118780000D01*
X102837936Y-116960000D02*
X104042064Y-116960000D01*
X59592064Y-114420000D02*
X58387936Y-114420000D01*
X59592064Y-116240000D02*
X58387936Y-116240000D01*
X107852064Y-114420000D02*
X106647936Y-114420000D01*
X107852064Y-116240000D02*
X106647936Y-116240000D01*
X64672064Y-116960000D02*
X63467936Y-116960000D01*
X64672064Y-118780000D02*
X63467936Y-118780000D01*
X84992064Y-116960000D02*
X83787936Y-116960000D01*
X84992064Y-118780000D02*
X83787936Y-118780000D01*
X64672064Y-114420000D02*
X63467936Y-114420000D01*
X64672064Y-116240000D02*
X63467936Y-116240000D01*
X84992064Y-114420000D02*
X83787936Y-114420000D01*
X84992064Y-116240000D02*
X83787936Y-116240000D01*
X69752064Y-116960000D02*
X68547936Y-116960000D01*
X69752064Y-118780000D02*
X68547936Y-118780000D01*
X69752064Y-114420000D02*
X68547936Y-114420000D01*
X69752064Y-116240000D02*
X68547936Y-116240000D01*
X75810000Y-110490000D02*
X75810000Y-111950000D01*
X72650000Y-110490000D02*
X72650000Y-112650000D01*
X72650000Y-110490000D02*
X73580000Y-110490000D01*
X75810000Y-110490000D02*
X74880000Y-110490000D01*
X124070000Y-110490000D02*
X124070000Y-111950000D01*
X120910000Y-110490000D02*
X120910000Y-112650000D01*
X120910000Y-110490000D02*
X121840000Y-110490000D01*
X124070000Y-110490000D02*
X123140000Y-110490000D01*
X50410000Y-110490000D02*
X50410000Y-111950000D01*
X47250000Y-110490000D02*
X47250000Y-112650000D01*
X47250000Y-110490000D02*
X48180000Y-110490000D01*
X50410000Y-110490000D02*
X49480000Y-110490000D01*
X118990000Y-110490000D02*
X118990000Y-111950000D01*
X115830000Y-110490000D02*
X115830000Y-112650000D01*
X115830000Y-110490000D02*
X116760000Y-110490000D01*
X118990000Y-110490000D02*
X118060000Y-110490000D01*
X55490000Y-110490000D02*
X55490000Y-111950000D01*
X52330000Y-110490000D02*
X52330000Y-112650000D01*
X52330000Y-110490000D02*
X53260000Y-110490000D01*
X55490000Y-110490000D02*
X54560000Y-110490000D01*
X113910000Y-110490000D02*
X113910000Y-111950000D01*
X110750000Y-110490000D02*
X110750000Y-112650000D01*
X110750000Y-110490000D02*
X111680000Y-110490000D01*
X113910000Y-110490000D02*
X112980000Y-110490000D01*
X60570000Y-110490000D02*
X60570000Y-111950000D01*
X57410000Y-110490000D02*
X57410000Y-112650000D01*
X57410000Y-110490000D02*
X58340000Y-110490000D01*
X60570000Y-110490000D02*
X59640000Y-110490000D01*
X108830000Y-110490000D02*
X108830000Y-111950000D01*
X105670000Y-110490000D02*
X105670000Y-112650000D01*
X105670000Y-110490000D02*
X106600000Y-110490000D01*
X108830000Y-110490000D02*
X107900000Y-110490000D01*
X65650000Y-110490000D02*
X65650000Y-111950000D01*
X62490000Y-110490000D02*
X62490000Y-112650000D01*
X62490000Y-110490000D02*
X63420000Y-110490000D01*
X65650000Y-110490000D02*
X64720000Y-110490000D01*
X85970000Y-110490000D02*
X85970000Y-111950000D01*
X82810000Y-110490000D02*
X82810000Y-112650000D01*
X82810000Y-110490000D02*
X83740000Y-110490000D01*
X85970000Y-110490000D02*
X85040000Y-110490000D01*
X70730000Y-110490000D02*
X70730000Y-111950000D01*
X67570000Y-110490000D02*
X67570000Y-112650000D01*
X67570000Y-110490000D02*
X68500000Y-110490000D01*
X70730000Y-110490000D02*
X69800000Y-110490000D01*
X86447000Y-69610000D02*
X86447000Y-70626000D01*
X84542000Y-70626000D02*
X86447000Y-70626000D01*
X84542000Y-69610000D02*
X84542000Y-70626000D01*
X86447000Y-69610000D02*
X84542000Y-69610000D01*
X87082000Y-70118000D02*
X86447000Y-70118000D01*
X87082000Y-69483000D02*
X87082000Y-70118000D01*
X83882000Y-70118000D02*
X84542000Y-70118000D01*
X83882000Y-69483000D02*
X83882000Y-70118000D01*
X86066000Y-69610000D02*
X85431000Y-70626000D01*
X81720000Y-64500000D02*
X89520000Y-64500000D01*
X89520000Y-64500000D02*
X89520000Y-77200000D01*
X89520000Y-77200000D02*
X81720000Y-77200000D01*
X81720000Y-77200000D02*
X81720000Y-64500000D01*
X81520000Y-66400000D02*
X81520000Y-64300000D01*
X81520000Y-64300000D02*
X83720000Y-64300000D01*
X108520000Y-66283000D02*
X109536000Y-66283000D01*
X109536000Y-68188000D02*
X109536000Y-66283000D01*
X108520000Y-68188000D02*
X109536000Y-68188000D01*
X108520000Y-66283000D02*
X108520000Y-68188000D01*
X109028000Y-65648000D02*
X109028000Y-66283000D01*
X108393000Y-65648000D02*
X109028000Y-65648000D01*
X109028000Y-68848000D02*
X109028000Y-68188000D01*
X108393000Y-68848000D02*
X109028000Y-68848000D01*
X108520000Y-66664000D02*
X109536000Y-67299000D01*
X103410000Y-71010000D02*
X103410000Y-63210000D01*
X103410000Y-63210000D02*
X116110000Y-63210000D01*
X116110000Y-63210000D02*
X116110000Y-71010000D01*
X116110000Y-71010000D02*
X103410000Y-71010000D01*
X105310000Y-71210000D02*
X103210000Y-71210000D01*
X103210000Y-71210000D02*
X103210000Y-69010000D01*
X53910000Y-100573000D02*
X54926000Y-100573000D01*
X54926000Y-102478000D02*
X54926000Y-100573000D01*
X53910000Y-102478000D02*
X54926000Y-102478000D01*
X53910000Y-100573000D02*
X53910000Y-102478000D01*
X54418000Y-99938000D02*
X54418000Y-100573000D01*
X53783000Y-99938000D02*
X54418000Y-99938000D01*
X54418000Y-103138000D02*
X54418000Y-102478000D01*
X53783000Y-103138000D02*
X54418000Y-103138000D01*
X53910000Y-100954000D02*
X54926000Y-101589000D01*
X48800000Y-105300000D02*
X48800000Y-97500000D01*
X48800000Y-97500000D02*
X61500000Y-97500000D01*
X61500000Y-97500000D02*
X61500000Y-105300000D01*
X61500000Y-105300000D02*
X48800000Y-105300000D01*
X50700000Y-105500000D02*
X48600000Y-105500000D01*
X48600000Y-105500000D02*
X48600000Y-103300000D01*
X108520000Y-77713000D02*
X109536000Y-77713000D01*
X109536000Y-79618000D02*
X109536000Y-77713000D01*
X108520000Y-79618000D02*
X109536000Y-79618000D01*
X108520000Y-77713000D02*
X108520000Y-79618000D01*
X109028000Y-77078000D02*
X109028000Y-77713000D01*
X108393000Y-77078000D02*
X109028000Y-77078000D01*
X109028000Y-80278000D02*
X109028000Y-79618000D01*
X108393000Y-80278000D02*
X109028000Y-80278000D01*
X108520000Y-78094000D02*
X109536000Y-78729000D01*
X103410000Y-82440000D02*
X103410000Y-74640000D01*
X103410000Y-74640000D02*
X116110000Y-74640000D01*
X116110000Y-74640000D02*
X116110000Y-82440000D01*
X116110000Y-82440000D02*
X103410000Y-82440000D01*
X105310000Y-82640000D02*
X103210000Y-82640000D01*
X103210000Y-82640000D02*
X103210000Y-80440000D01*
X53910000Y-89143000D02*
X54926000Y-89143000D01*
X54926000Y-91048000D02*
X54926000Y-89143000D01*
X53910000Y-91048000D02*
X54926000Y-91048000D01*
X53910000Y-89143000D02*
X53910000Y-91048000D01*
X54418000Y-88508000D02*
X54418000Y-89143000D01*
X53783000Y-88508000D02*
X54418000Y-88508000D01*
X54418000Y-91708000D02*
X54418000Y-91048000D01*
X53783000Y-91708000D02*
X54418000Y-91708000D01*
X53910000Y-89524000D02*
X54926000Y-90159000D01*
X48800000Y-93870000D02*
X48800000Y-86070000D01*
X48800000Y-86070000D02*
X61500000Y-86070000D01*
X61500000Y-86070000D02*
X61500000Y-93870000D01*
X61500000Y-93870000D02*
X48800000Y-93870000D01*
X50700000Y-94070000D02*
X48600000Y-94070000D01*
X48600000Y-94070000D02*
X48600000Y-91870000D01*
X108520000Y-89143000D02*
X109536000Y-89143000D01*
X109536000Y-91048000D02*
X109536000Y-89143000D01*
X108520000Y-91048000D02*
X109536000Y-91048000D01*
X108520000Y-89143000D02*
X108520000Y-91048000D01*
X109028000Y-88508000D02*
X109028000Y-89143000D01*
X108393000Y-88508000D02*
X109028000Y-88508000D01*
X109028000Y-91708000D02*
X109028000Y-91048000D01*
X108393000Y-91708000D02*
X109028000Y-91708000D01*
X108520000Y-89524000D02*
X109536000Y-90159000D01*
X103410000Y-93870000D02*
X103410000Y-86070000D01*
X103410000Y-86070000D02*
X116110000Y-86070000D01*
X116110000Y-86070000D02*
X116110000Y-93870000D01*
X116110000Y-93870000D02*
X103410000Y-93870000D01*
X105310000Y-94070000D02*
X103210000Y-94070000D01*
X103210000Y-94070000D02*
X103210000Y-91870000D01*
X53910000Y-77713000D02*
X54926000Y-77713000D01*
X54926000Y-79618000D02*
X54926000Y-77713000D01*
X53910000Y-79618000D02*
X54926000Y-79618000D01*
X53910000Y-77713000D02*
X53910000Y-79618000D01*
X54418000Y-77078000D02*
X54418000Y-77713000D01*
X53783000Y-77078000D02*
X54418000Y-77078000D01*
X54418000Y-80278000D02*
X54418000Y-79618000D01*
X53783000Y-80278000D02*
X54418000Y-80278000D01*
X53910000Y-78094000D02*
X54926000Y-78729000D01*
X48800000Y-82440000D02*
X48800000Y-74640000D01*
X48800000Y-74640000D02*
X61500000Y-74640000D01*
X61500000Y-74640000D02*
X61500000Y-82440000D01*
X61500000Y-82440000D02*
X48800000Y-82440000D01*
X50700000Y-82640000D02*
X48600000Y-82640000D01*
X48600000Y-82640000D02*
X48600000Y-80440000D01*
X108520000Y-100573000D02*
X109536000Y-100573000D01*
X109536000Y-102478000D02*
X109536000Y-100573000D01*
X108520000Y-102478000D02*
X109536000Y-102478000D01*
X108520000Y-100573000D02*
X108520000Y-102478000D01*
X109028000Y-99938000D02*
X109028000Y-100573000D01*
X108393000Y-99938000D02*
X109028000Y-99938000D01*
X109028000Y-103138000D02*
X109028000Y-102478000D01*
X108393000Y-103138000D02*
X109028000Y-103138000D01*
X108520000Y-100954000D02*
X109536000Y-101589000D01*
X103410000Y-105300000D02*
X103410000Y-97500000D01*
X103410000Y-97500000D02*
X116110000Y-97500000D01*
X116110000Y-97500000D02*
X116110000Y-105300000D01*
X116110000Y-105300000D02*
X103410000Y-105300000D01*
X105310000Y-105500000D02*
X103210000Y-105500000D01*
X103210000Y-105500000D02*
X103210000Y-103300000D01*
X53910000Y-66283000D02*
X54926000Y-66283000D01*
X54926000Y-68188000D02*
X54926000Y-66283000D01*
X53910000Y-68188000D02*
X54926000Y-68188000D01*
X53910000Y-66283000D02*
X53910000Y-68188000D01*
X54418000Y-65648000D02*
X54418000Y-66283000D01*
X53783000Y-65648000D02*
X54418000Y-65648000D01*
X54418000Y-68848000D02*
X54418000Y-68188000D01*
X53783000Y-68848000D02*
X54418000Y-68848000D01*
X53910000Y-66664000D02*
X54926000Y-67299000D01*
X48800000Y-71010000D02*
X48800000Y-63210000D01*
X48800000Y-63210000D02*
X61500000Y-63210000D01*
X61500000Y-63210000D02*
X61500000Y-71010000D01*
X61500000Y-71010000D02*
X48800000Y-71010000D01*
X50700000Y-71210000D02*
X48600000Y-71210000D01*
X48600000Y-71210000D02*
X48600000Y-69010000D01*
X79310000Y-102147000D02*
X78294000Y-102147000D01*
X78294000Y-100242000D02*
X78294000Y-102147000D01*
X79310000Y-100242000D02*
X78294000Y-100242000D01*
X79310000Y-102147000D02*
X79310000Y-100242000D01*
X78802000Y-102782000D02*
X78802000Y-102147000D01*
X79437000Y-102782000D02*
X78802000Y-102782000D01*
X78802000Y-99582000D02*
X78802000Y-100242000D01*
X79437000Y-99582000D02*
X78802000Y-99582000D01*
X79310000Y-101766000D02*
X78294000Y-101131000D01*
X84420000Y-97420000D02*
X84420000Y-105220000D01*
X84420000Y-105220000D02*
X71720000Y-105220000D01*
X71720000Y-105220000D02*
X71720000Y-97420000D01*
X71720000Y-97420000D02*
X84420000Y-97420000D01*
X82520000Y-97220000D02*
X84620000Y-97220000D01*
X84620000Y-97220000D02*
X84620000Y-99420000D01*
X75017000Y-69610000D02*
X75017000Y-70626000D01*
X73112000Y-70626000D02*
X75017000Y-70626000D01*
X73112000Y-69610000D02*
X73112000Y-70626000D01*
X75017000Y-69610000D02*
X73112000Y-69610000D01*
X75652000Y-70118000D02*
X75017000Y-70118000D01*
X75652000Y-69483000D02*
X75652000Y-70118000D01*
X72452000Y-70118000D02*
X73112000Y-70118000D01*
X72452000Y-69483000D02*
X72452000Y-70118000D01*
X74636000Y-69610000D02*
X74001000Y-70626000D01*
X70290000Y-64500000D02*
X78090000Y-64500000D01*
X78090000Y-64500000D02*
X78090000Y-77200000D01*
X78090000Y-77200000D02*
X70290000Y-77200000D01*
X70290000Y-77200000D02*
X70290000Y-64500000D01*
X70090000Y-66400000D02*
X70090000Y-64300000D01*
X70090000Y-64300000D02*
X72290000Y-64300000D01*
X79310000Y-90717000D02*
X78294000Y-90717000D01*
X78294000Y-88812000D02*
X78294000Y-90717000D01*
X79310000Y-88812000D02*
X78294000Y-88812000D01*
X79310000Y-90717000D02*
X79310000Y-88812000D01*
X78802000Y-91352000D02*
X78802000Y-90717000D01*
X79437000Y-91352000D02*
X78802000Y-91352000D01*
X78802000Y-88152000D02*
X78802000Y-88812000D01*
X79437000Y-88152000D02*
X78802000Y-88152000D01*
X79310000Y-90336000D02*
X78294000Y-89701000D01*
X84420000Y-85990000D02*
X84420000Y-93790000D01*
X84420000Y-93790000D02*
X71720000Y-93790000D01*
X71720000Y-93790000D02*
X71720000Y-85990000D01*
X71720000Y-85990000D02*
X84420000Y-85990000D01*
X82520000Y-85790000D02*
X84620000Y-85790000D01*
X84620000Y-85790000D02*
X84620000Y-87990000D01*
X122416250Y-61758750D02*
X122416250Y-62546250D01*
X122022500Y-62152500D02*
X122810000Y-62152500D01*
X123050000Y-66345563D02*
X124114437Y-67410000D01*
X123050000Y-61654437D02*
X124114437Y-60590000D01*
X123050000Y-61654437D02*
X123050000Y-62940000D01*
X123050000Y-66345563D02*
X123050000Y-65060000D01*
X124114437Y-67410000D02*
X129870000Y-67410000D01*
X124114437Y-60590000D02*
X129870000Y-60590000D01*
X129870000Y-60590000D02*
X129870000Y-62940000D01*
X129870000Y-67410000D02*
X129870000Y-65060000D01*
X100980000Y-72190000D02*
X95740000Y-72190000D01*
X100980000Y-61950000D02*
X95740000Y-61950000D01*
X95740000Y-70880000D02*
X95740000Y-72190000D01*
X95740000Y-61950000D02*
X95740000Y-68340000D01*
X100980000Y-65800000D02*
X100980000Y-72190000D01*
X100980000Y-61950000D02*
X100976200Y-63234600D01*
X45235000Y-103590000D02*
X45220000Y-103590000D01*
X47360000Y-103590000D02*
X47345000Y-103590000D01*
X45235000Y-99050000D02*
X45220000Y-99050000D01*
X47360000Y-99050000D02*
X47345000Y-99050000D01*
X45220000Y-99050000D02*
X45220000Y-103590000D01*
X47360000Y-99050000D02*
X47360000Y-103590000D01*
X45235000Y-92160000D02*
X45220000Y-92160000D01*
X47360000Y-92160000D02*
X47345000Y-92160000D01*
X45235000Y-87620000D02*
X45220000Y-87620000D01*
X47360000Y-87620000D02*
X47345000Y-87620000D01*
X45220000Y-87620000D02*
X45220000Y-92160000D01*
X47360000Y-87620000D02*
X47360000Y-92160000D01*
X45235000Y-80730000D02*
X45220000Y-80730000D01*
X47360000Y-80730000D02*
X47345000Y-80730000D01*
X45235000Y-76190000D02*
X45220000Y-76190000D01*
X47360000Y-76190000D02*
X47345000Y-76190000D01*
X45220000Y-76190000D02*
X45220000Y-80730000D01*
X47360000Y-76190000D02*
X47360000Y-80730000D01*
X45235000Y-69300000D02*
X45220000Y-69300000D01*
X47360000Y-69300000D02*
X47345000Y-69300000D01*
X45235000Y-64760000D02*
X45220000Y-64760000D01*
X47360000Y-64760000D02*
X47345000Y-64760000D01*
X45220000Y-64760000D02*
X45220000Y-69300000D01*
X47360000Y-64760000D02*
X47360000Y-69300000D01*
X72000000Y-60935000D02*
X72000000Y-60920000D01*
X72000000Y-63060000D02*
X72000000Y-63045000D01*
X76540000Y-60935000D02*
X76540000Y-60920000D01*
X76540000Y-63060000D02*
X76540000Y-63045000D01*
X76540000Y-60920000D02*
X72000000Y-60920000D01*
X76540000Y-63060000D02*
X72000000Y-63060000D01*
X125170000Y-74116500D02*
X126370000Y-74116500D01*
X125170000Y-78116500D02*
X125170000Y-74116500D01*
X129970000Y-74116500D02*
X129970000Y-76816500D01*
X128770000Y-74116500D02*
X129970000Y-74116500D01*
X62940000Y-137170000D02*
X59540000Y-137170000D01*
X64580000Y-137170000D02*
X64040000Y-137170000D01*
X57380000Y-134340000D02*
X57380000Y-133830000D01*
X57900000Y-133830000D02*
X57380000Y-133830000D01*
X57900000Y-134340000D02*
X57900000Y-133830000D01*
X58440000Y-137170000D02*
X57900000Y-137170000D01*
X65100000Y-134340000D02*
X65100000Y-133830000D01*
X64580000Y-134340000D02*
X64580000Y-133830000D01*
X57900000Y-137170000D02*
X57900000Y-136940000D01*
X65100000Y-140840000D02*
X65100000Y-136940000D01*
X65100000Y-133830000D02*
X64580000Y-133830000D01*
X57380000Y-140840000D02*
X57380000Y-136940000D01*
X65100000Y-140840000D02*
X57380000Y-140840000D01*
X64580000Y-137170000D02*
X64580000Y-136940000D01*
X80030000Y-137220000D02*
X76630000Y-137220000D01*
X81670000Y-137220000D02*
X81130000Y-137220000D01*
X74470000Y-134390000D02*
X74470000Y-133880000D01*
X74990000Y-133880000D02*
X74470000Y-133880000D01*
X74990000Y-134390000D02*
X74990000Y-133880000D01*
X75530000Y-137220000D02*
X74990000Y-137220000D01*
X82190000Y-134390000D02*
X82190000Y-133880000D01*
X81670000Y-134390000D02*
X81670000Y-133880000D01*
X74990000Y-137220000D02*
X74990000Y-136990000D01*
X82190000Y-140890000D02*
X82190000Y-136990000D01*
X82190000Y-133880000D02*
X81670000Y-133880000D01*
X74470000Y-140890000D02*
X74470000Y-136990000D01*
X82190000Y-140890000D02*
X74470000Y-140890000D01*
X81670000Y-137220000D02*
X81670000Y-136990000D01*
X67090000Y-136100436D02*
X67090000Y-137304564D01*
X68910000Y-136100436D02*
X68910000Y-137304564D01*
X83480000Y-136100436D02*
X83480000Y-137304564D01*
X85300000Y-136100436D02*
X85300000Y-137304564D01*
X102530000Y-136100436D02*
X102530000Y-137304564D01*
X104350000Y-136100436D02*
X104350000Y-137304564D01*
X110150000Y-136100436D02*
X110150000Y-137304564D01*
X111970000Y-136100436D02*
X111970000Y-137304564D01*
X117770000Y-136100436D02*
X117770000Y-137304564D01*
X119590000Y-136100436D02*
X119590000Y-137304564D01*
X125390000Y-136100436D02*
X125390000Y-137304564D01*
X127210000Y-136100436D02*
X127210000Y-137304564D01*
X79912064Y-114420000D02*
X78707936Y-114420000D01*
X79912064Y-116240000D02*
X78707936Y-116240000D01*
X79912064Y-116960000D02*
X78707936Y-116960000D01*
X79912064Y-118780000D02*
X78707936Y-118780000D01*
X94275000Y-52910436D02*
X94275000Y-54114564D01*
X96095000Y-52910436D02*
X96095000Y-54114564D01*
X96070436Y-47025000D02*
X97274564Y-47025000D01*
X96070436Y-45205000D02*
X97274564Y-45205000D01*
X71415000Y-54820436D02*
X71415000Y-56024564D01*
X73235000Y-54820436D02*
X73235000Y-56024564D01*
X68875000Y-54820436D02*
X68875000Y-56024564D01*
X70695000Y-54820436D02*
X70695000Y-56024564D01*
X80890000Y-110490000D02*
X80890000Y-111950000D01*
X77730000Y-110490000D02*
X77730000Y-112650000D01*
X77730000Y-110490000D02*
X78660000Y-110490000D01*
X80890000Y-110490000D02*
X79960000Y-110490000D01*
X100355000Y-122699564D02*
X100355000Y-121495436D01*
X97635000Y-122699564D02*
X97635000Y-121495436D01*
X100980000Y-83620000D02*
X95740000Y-83620000D01*
X100980000Y-73380000D02*
X95740000Y-73380000D01*
X95740000Y-82310000D02*
X95740000Y-83620000D01*
X95740000Y-73380000D02*
X95740000Y-79770000D01*
X100980000Y-77230000D02*
X100980000Y-83620000D01*
X100980000Y-73380000D02*
X100976200Y-74664600D01*
X100980000Y-95050000D02*
X95740000Y-95050000D01*
X100980000Y-84810000D02*
X95740000Y-84810000D01*
X95740000Y-93740000D02*
X95740000Y-95050000D01*
X95740000Y-84810000D02*
X95740000Y-91200000D01*
X100980000Y-88660000D02*
X100980000Y-95050000D01*
X100980000Y-84810000D02*
X100976200Y-86094600D01*
X100980000Y-106480000D02*
X95740000Y-106480000D01*
X100980000Y-96240000D02*
X95740000Y-96240000D01*
X95740000Y-105170000D02*
X95740000Y-106480000D01*
X95740000Y-96240000D02*
X95740000Y-102630000D01*
X100980000Y-100090000D02*
X100980000Y-106480000D01*
X100980000Y-96240000D02*
X100976200Y-97524600D01*
X86850000Y-96240000D02*
X92090000Y-96240000D01*
X86850000Y-106480000D02*
X92090000Y-106480000D01*
X92090000Y-97550000D02*
X92090000Y-96240000D01*
X92090000Y-106480000D02*
X92090000Y-100090000D01*
X86850000Y-102630000D02*
X86850000Y-96240000D01*
X86850000Y-106480000D02*
X86853800Y-105195400D01*
X86850000Y-84810000D02*
X92090000Y-84810000D01*
X86850000Y-95050000D02*
X92090000Y-95050000D01*
X92090000Y-86120000D02*
X92090000Y-84810000D01*
X92090000Y-95050000D02*
X92090000Y-88660000D01*
X86850000Y-91200000D02*
X86850000Y-84810000D01*
X86850000Y-95050000D02*
X86853800Y-93765400D01*
X43690000Y-124160000D02*
X45020000Y-124160000D01*
X43690000Y-125490000D02*
X43690000Y-124160000D01*
X46290000Y-124160000D02*
X48890000Y-124160000D01*
X46290000Y-126760000D02*
X46290000Y-124160000D01*
X43690000Y-126760000D02*
X46290000Y-126760000D01*
X48890000Y-124160000D02*
X48890000Y-131900000D01*
X43690000Y-126760000D02*
X43690000Y-131900000D01*
X43690000Y-131900000D02*
X48890000Y-131900000D01*
X128360000Y-57360000D02*
X126260000Y-57360000D01*
X128660000Y-57660000D02*
X128660000Y-56060000D01*
X126960000Y-57660000D02*
X128660000Y-57660000D01*
X119160000Y-57360000D02*
X119160000Y-55560000D01*
X121260000Y-57360000D02*
X119160000Y-57360000D01*
X128360000Y-42660000D02*
X128360000Y-57360000D01*
X119160000Y-42660000D02*
X128360000Y-42660000D01*
X119160000Y-51160000D02*
X119160000Y-42660000D01*
X107250000Y-43140000D02*
X108250000Y-44140000D01*
X107250000Y-43140000D02*
X106250000Y-44140000D01*
X99750000Y-57940000D02*
X99750000Y-42940000D01*
X114750000Y-57940000D02*
X99750000Y-57940000D01*
X114750000Y-42940000D02*
X114750000Y-57940000D01*
X99750000Y-42940000D02*
X114750000Y-42940000D01*
X57720000Y-43140000D02*
X58720000Y-44140000D01*
X57720000Y-43140000D02*
X56720000Y-44140000D01*
X50220000Y-57940000D02*
X50220000Y-42940000D01*
X65220000Y-57940000D02*
X50220000Y-57940000D01*
X65220000Y-42940000D02*
X65220000Y-57940000D01*
X50220000Y-42940000D02*
X65220000Y-42940000D01*
X100900000Y-139270000D02*
X100900000Y-139270000D01*
X100900000Y-139400000D02*
X100900000Y-139270000D01*
X100900000Y-139400000D02*
X100900000Y-139400000D01*
X100900000Y-139270000D02*
X100900000Y-139400000D01*
X98360000Y-139270000D02*
X98360000Y-139270000D01*
X98360000Y-139400000D02*
X98360000Y-139270000D01*
X98360000Y-139400000D02*
X98360000Y-139400000D01*
X98360000Y-139270000D02*
X98360000Y-139400000D01*
X101190000Y-139400000D02*
X101590000Y-139400000D01*
X101190000Y-140520000D02*
X101190000Y-139400000D01*
X101590000Y-140520000D02*
X101190000Y-140520000D01*
X101590000Y-139400000D02*
X101590000Y-140520000D01*
X98070000Y-139400000D02*
X101190000Y-139400000D01*
X101190000Y-139400000D02*
X101190000Y-143260000D01*
X98070000Y-139400000D02*
X98070000Y-143260000D01*
X101190000Y-143260000D02*
G75*
G02X98070000Y-143260000I-1560000J0D01*
G01*
X108520000Y-139270000D02*
X108520000Y-139270000D01*
X108520000Y-139400000D02*
X108520000Y-139270000D01*
X108520000Y-139400000D02*
X108520000Y-139400000D01*
X108520000Y-139270000D02*
X108520000Y-139400000D01*
X105980000Y-139270000D02*
X105980000Y-139270000D01*
X105980000Y-139400000D02*
X105980000Y-139270000D01*
X105980000Y-139400000D02*
X105980000Y-139400000D01*
X105980000Y-139270000D02*
X105980000Y-139400000D01*
X108810000Y-139400000D02*
X109210000Y-139400000D01*
X108810000Y-140520000D02*
X108810000Y-139400000D01*
X109210000Y-140520000D02*
X108810000Y-140520000D01*
X109210000Y-139400000D02*
X109210000Y-140520000D01*
X105690000Y-139400000D02*
X108810000Y-139400000D01*
X108810000Y-139400000D02*
X108810000Y-143260000D01*
X105690000Y-139400000D02*
X105690000Y-143260000D01*
X108810000Y-143260000D02*
G75*
G02X105690000Y-143260000I-1560000J0D01*
G01*
X116140000Y-139270000D02*
X116140000Y-139270000D01*
X116140000Y-139400000D02*
X116140000Y-139270000D01*
X116140000Y-139400000D02*
X116140000Y-139400000D01*
X116140000Y-139270000D02*
X116140000Y-139400000D01*
X113600000Y-139270000D02*
X113600000Y-139270000D01*
X113600000Y-139400000D02*
X113600000Y-139270000D01*
X113600000Y-139400000D02*
X113600000Y-139400000D01*
X113600000Y-139270000D02*
X113600000Y-139400000D01*
X116430000Y-139400000D02*
X116830000Y-139400000D01*
X116430000Y-140520000D02*
X116430000Y-139400000D01*
X116830000Y-140520000D02*
X116430000Y-140520000D01*
X116830000Y-139400000D02*
X116830000Y-140520000D01*
X113310000Y-139400000D02*
X116430000Y-139400000D01*
X116430000Y-139400000D02*
X116430000Y-143260000D01*
X113310000Y-139400000D02*
X113310000Y-143260000D01*
X116430000Y-143260000D02*
G75*
G02X113310000Y-143260000I-1560000J0D01*
G01*
X123760000Y-139270000D02*
X123760000Y-139270000D01*
X123760000Y-139400000D02*
X123760000Y-139270000D01*
X123760000Y-139400000D02*
X123760000Y-139400000D01*
X123760000Y-139270000D02*
X123760000Y-139400000D01*
X121220000Y-139270000D02*
X121220000Y-139270000D01*
X121220000Y-139400000D02*
X121220000Y-139270000D01*
X121220000Y-139400000D02*
X121220000Y-139400000D01*
X121220000Y-139270000D02*
X121220000Y-139400000D01*
X124050000Y-139400000D02*
X124450000Y-139400000D01*
X124050000Y-140520000D02*
X124050000Y-139400000D01*
X124450000Y-140520000D02*
X124050000Y-140520000D01*
X124450000Y-139400000D02*
X124450000Y-140520000D01*
X120930000Y-139400000D02*
X124050000Y-139400000D01*
X124050000Y-139400000D02*
X124050000Y-143260000D01*
X120930000Y-139400000D02*
X120930000Y-143260000D01*
X124050000Y-143260000D02*
G75*
G02X120930000Y-143260000I-1560000J0D01*
G01*
X96045000Y-50450000D02*
X97455000Y-50450000D01*
X97455000Y-48130000D02*
X95425000Y-48130000D01*
X97455000Y-48130000D02*
X97455000Y-48790000D01*
X97455000Y-49790000D02*
X97455000Y-50450000D01*
X96695000Y-109940000D02*
X98155000Y-109940000D01*
X96695000Y-113100000D02*
X98855000Y-113100000D01*
X96695000Y-113100000D02*
X96695000Y-112170000D01*
X96695000Y-109940000D02*
X96695000Y-110870000D01*
X91770000Y-113100000D02*
X90310000Y-113100000D01*
X91770000Y-109940000D02*
X89610000Y-109940000D01*
X91770000Y-109940000D02*
X91770000Y-110870000D01*
X91770000Y-113100000D02*
X91770000Y-112170000D01*
X71465000Y-50035000D02*
X70055000Y-50035000D01*
X70055000Y-52355000D02*
X72085000Y-52355000D01*
X70055000Y-52355000D02*
X70055000Y-51695000D01*
X70055000Y-50695000D02*
X70055000Y-50035000D01*
X94825000Y-117202064D02*
X94825000Y-115997936D01*
X93005000Y-117202064D02*
X93005000Y-115997936D01*
X79397936Y-132910000D02*
X80602064Y-132910000D01*
X79397936Y-131090000D02*
X80602064Y-131090000D01*
X99905000Y-116984564D02*
X99905000Y-115780436D01*
X98085000Y-116984564D02*
X98085000Y-115780436D01*
X128172064Y-79090000D02*
X126967936Y-79090000D01*
X128172064Y-80910000D02*
X126967936Y-80910000D01*
X126684564Y-70090000D02*
X125480436Y-70090000D01*
X126684564Y-71910000D02*
X125480436Y-71910000D01*
X96070436Y-58455000D02*
X97274564Y-58455000D01*
X96070436Y-56635000D02*
X97274564Y-56635000D01*
X96815000Y-52915436D02*
X96815000Y-54119564D01*
X98635000Y-52915436D02*
X98635000Y-54119564D01*
X66335000Y-54820436D02*
X66335000Y-56024564D01*
X68155000Y-54820436D02*
X68155000Y-56024564D01*
X67695436Y-48930000D02*
X68899564Y-48930000D01*
X67695436Y-47110000D02*
X68899564Y-47110000D01*
D10*
X98092380Y-137345357D02*
X97616190Y-137678690D01*
X98092380Y-137916785D02*
X97092380Y-137916785D01*
X97092380Y-137535833D01*
X97140000Y-137440595D01*
X97187619Y-137392976D01*
X97282857Y-137345357D01*
X97425714Y-137345357D01*
X97520952Y-137392976D01*
X97568571Y-137440595D01*
X97616190Y-137535833D01*
X97616190Y-137916785D01*
X97092380Y-137012023D02*
X97092380Y-136392976D01*
X97473333Y-136726309D01*
X97473333Y-136583452D01*
X97520952Y-136488214D01*
X97568571Y-136440595D01*
X97663809Y-136392976D01*
X97901904Y-136392976D01*
X97997142Y-136440595D01*
X98044761Y-136488214D01*
X98092380Y-136583452D01*
X98092380Y-136869166D01*
X98044761Y-136964404D01*
X97997142Y-137012023D01*
X97092380Y-135488214D02*
X97092380Y-135964404D01*
X97568571Y-136012023D01*
X97520952Y-135964404D01*
X97473333Y-135869166D01*
X97473333Y-135631071D01*
X97520952Y-135535833D01*
X97568571Y-135488214D01*
X97663809Y-135440595D01*
X97901904Y-135440595D01*
X97997142Y-135488214D01*
X98044761Y-135535833D01*
X98092380Y-135631071D01*
X98092380Y-135869166D01*
X98044761Y-135964404D01*
X97997142Y-136012023D01*
X90795714Y-136682380D02*
X90795714Y-135682380D01*
X91033809Y-135682380D01*
X91176666Y-135730000D01*
X91271904Y-135825238D01*
X91319523Y-135920476D01*
X91367142Y-136110952D01*
X91367142Y-136253809D01*
X91319523Y-136444285D01*
X91271904Y-136539523D01*
X91176666Y-136634761D01*
X91033809Y-136682380D01*
X90795714Y-136682380D01*
X91748095Y-135777619D02*
X91795714Y-135730000D01*
X91890952Y-135682380D01*
X92129047Y-135682380D01*
X92224285Y-135730000D01*
X92271904Y-135777619D01*
X92319523Y-135872857D01*
X92319523Y-135968095D01*
X92271904Y-136110952D01*
X91700476Y-136682380D01*
X92319523Y-136682380D01*
X93271904Y-136682380D02*
X92700476Y-136682380D01*
X92986190Y-136682380D02*
X92986190Y-135682380D01*
X92890952Y-135825238D01*
X92795714Y-135920476D01*
X92700476Y-135968095D01*
X82993095Y-51282380D02*
X83564523Y-51282380D01*
X83278809Y-52282380D02*
X83278809Y-51282380D01*
X84421666Y-52282380D02*
X83850238Y-52282380D01*
X84135952Y-52282380D02*
X84135952Y-51282380D01*
X84040714Y-51425238D01*
X83945476Y-51520476D01*
X83850238Y-51568095D01*
X80289026Y-125641522D02*
X80861446Y-126213942D01*
X80962461Y-126247614D01*
X81029805Y-126247614D01*
X81130820Y-126213942D01*
X81265507Y-126079255D01*
X81299179Y-125978240D01*
X81299179Y-125910896D01*
X81265507Y-125809881D01*
X80693087Y-125237461D01*
X81063477Y-125001759D02*
X81063477Y-124934416D01*
X81097148Y-124833400D01*
X81265507Y-124665042D01*
X81366522Y-124631370D01*
X81433866Y-124631370D01*
X81534881Y-124665042D01*
X81602225Y-124732385D01*
X81669568Y-124867072D01*
X81669568Y-125675194D01*
X82107301Y-125237461D01*
X73587142Y-121497380D02*
X73253809Y-121021190D01*
X73015714Y-121497380D02*
X73015714Y-120497380D01*
X73396666Y-120497380D01*
X73491904Y-120545000D01*
X73539523Y-120592619D01*
X73587142Y-120687857D01*
X73587142Y-120830714D01*
X73539523Y-120925952D01*
X73491904Y-120973571D01*
X73396666Y-121021190D01*
X73015714Y-121021190D01*
X73920476Y-120497380D02*
X74539523Y-120497380D01*
X74206190Y-120878333D01*
X74349047Y-120878333D01*
X74444285Y-120925952D01*
X74491904Y-120973571D01*
X74539523Y-121068809D01*
X74539523Y-121306904D01*
X74491904Y-121402142D01*
X74444285Y-121449761D01*
X74349047Y-121497380D01*
X74063333Y-121497380D01*
X73968095Y-121449761D01*
X73920476Y-121402142D01*
X75396666Y-120830714D02*
X75396666Y-121497380D01*
X75158571Y-120449761D02*
X74920476Y-121164047D01*
X75539523Y-121164047D01*
X118037142Y-121497380D02*
X117703809Y-121021190D01*
X117465714Y-121497380D02*
X117465714Y-120497380D01*
X117846666Y-120497380D01*
X117941904Y-120545000D01*
X117989523Y-120592619D01*
X118037142Y-120687857D01*
X118037142Y-120830714D01*
X117989523Y-120925952D01*
X117941904Y-120973571D01*
X117846666Y-121021190D01*
X117465714Y-121021190D01*
X118370476Y-120497380D02*
X118989523Y-120497380D01*
X118656190Y-120878333D01*
X118799047Y-120878333D01*
X118894285Y-120925952D01*
X118941904Y-120973571D01*
X118989523Y-121068809D01*
X118989523Y-121306904D01*
X118941904Y-121402142D01*
X118894285Y-121449761D01*
X118799047Y-121497380D01*
X118513333Y-121497380D01*
X118418095Y-121449761D01*
X118370476Y-121402142D01*
X119322857Y-120497380D02*
X119941904Y-120497380D01*
X119608571Y-120878333D01*
X119751428Y-120878333D01*
X119846666Y-120925952D01*
X119894285Y-120973571D01*
X119941904Y-121068809D01*
X119941904Y-121306904D01*
X119894285Y-121402142D01*
X119846666Y-121449761D01*
X119751428Y-121497380D01*
X119465714Y-121497380D01*
X119370476Y-121449761D01*
X119322857Y-121402142D01*
X73587142Y-120227380D02*
X73253809Y-119751190D01*
X73015714Y-120227380D02*
X73015714Y-119227380D01*
X73396666Y-119227380D01*
X73491904Y-119275000D01*
X73539523Y-119322619D01*
X73587142Y-119417857D01*
X73587142Y-119560714D01*
X73539523Y-119655952D01*
X73491904Y-119703571D01*
X73396666Y-119751190D01*
X73015714Y-119751190D01*
X73920476Y-119227380D02*
X74539523Y-119227380D01*
X74206190Y-119608333D01*
X74349047Y-119608333D01*
X74444285Y-119655952D01*
X74491904Y-119703571D01*
X74539523Y-119798809D01*
X74539523Y-120036904D01*
X74491904Y-120132142D01*
X74444285Y-120179761D01*
X74349047Y-120227380D01*
X74063333Y-120227380D01*
X73968095Y-120179761D01*
X73920476Y-120132142D01*
X74920476Y-119322619D02*
X74968095Y-119275000D01*
X75063333Y-119227380D01*
X75301428Y-119227380D01*
X75396666Y-119275000D01*
X75444285Y-119322619D01*
X75491904Y-119417857D01*
X75491904Y-119513095D01*
X75444285Y-119655952D01*
X74872857Y-120227380D01*
X75491904Y-120227380D01*
X121847142Y-117602380D02*
X121513809Y-117126190D01*
X121275714Y-117602380D02*
X121275714Y-116602380D01*
X121656666Y-116602380D01*
X121751904Y-116650000D01*
X121799523Y-116697619D01*
X121847142Y-116792857D01*
X121847142Y-116935714D01*
X121799523Y-117030952D01*
X121751904Y-117078571D01*
X121656666Y-117126190D01*
X121275714Y-117126190D01*
X122180476Y-116602380D02*
X122799523Y-116602380D01*
X122466190Y-116983333D01*
X122609047Y-116983333D01*
X122704285Y-117030952D01*
X122751904Y-117078571D01*
X122799523Y-117173809D01*
X122799523Y-117411904D01*
X122751904Y-117507142D01*
X122704285Y-117554761D01*
X122609047Y-117602380D01*
X122323333Y-117602380D01*
X122228095Y-117554761D01*
X122180476Y-117507142D01*
X123751904Y-117602380D02*
X123180476Y-117602380D01*
X123466190Y-117602380D02*
X123466190Y-116602380D01*
X123370952Y-116745238D01*
X123275714Y-116840476D01*
X123180476Y-116888095D01*
X48187142Y-121497380D02*
X47853809Y-121021190D01*
X47615714Y-121497380D02*
X47615714Y-120497380D01*
X47996666Y-120497380D01*
X48091904Y-120545000D01*
X48139523Y-120592619D01*
X48187142Y-120687857D01*
X48187142Y-120830714D01*
X48139523Y-120925952D01*
X48091904Y-120973571D01*
X47996666Y-121021190D01*
X47615714Y-121021190D01*
X48520476Y-120497380D02*
X49139523Y-120497380D01*
X48806190Y-120878333D01*
X48949047Y-120878333D01*
X49044285Y-120925952D01*
X49091904Y-120973571D01*
X49139523Y-121068809D01*
X49139523Y-121306904D01*
X49091904Y-121402142D01*
X49044285Y-121449761D01*
X48949047Y-121497380D01*
X48663333Y-121497380D01*
X48568095Y-121449761D01*
X48520476Y-121402142D01*
X49758571Y-120497380D02*
X49853809Y-120497380D01*
X49949047Y-120545000D01*
X49996666Y-120592619D01*
X50044285Y-120687857D01*
X50091904Y-120878333D01*
X50091904Y-121116428D01*
X50044285Y-121306904D01*
X49996666Y-121402142D01*
X49949047Y-121449761D01*
X49853809Y-121497380D01*
X49758571Y-121497380D01*
X49663333Y-121449761D01*
X49615714Y-121402142D01*
X49568095Y-121306904D01*
X49520476Y-121116428D01*
X49520476Y-120878333D01*
X49568095Y-120687857D01*
X49615714Y-120592619D01*
X49663333Y-120545000D01*
X49758571Y-120497380D01*
X112957142Y-121497380D02*
X112623809Y-121021190D01*
X112385714Y-121497380D02*
X112385714Y-120497380D01*
X112766666Y-120497380D01*
X112861904Y-120545000D01*
X112909523Y-120592619D01*
X112957142Y-120687857D01*
X112957142Y-120830714D01*
X112909523Y-120925952D01*
X112861904Y-120973571D01*
X112766666Y-121021190D01*
X112385714Y-121021190D01*
X113338095Y-120592619D02*
X113385714Y-120545000D01*
X113480952Y-120497380D01*
X113719047Y-120497380D01*
X113814285Y-120545000D01*
X113861904Y-120592619D01*
X113909523Y-120687857D01*
X113909523Y-120783095D01*
X113861904Y-120925952D01*
X113290476Y-121497380D01*
X113909523Y-121497380D01*
X114385714Y-121497380D02*
X114576190Y-121497380D01*
X114671428Y-121449761D01*
X114719047Y-121402142D01*
X114814285Y-121259285D01*
X114861904Y-121068809D01*
X114861904Y-120687857D01*
X114814285Y-120592619D01*
X114766666Y-120545000D01*
X114671428Y-120497380D01*
X114480952Y-120497380D01*
X114385714Y-120545000D01*
X114338095Y-120592619D01*
X114290476Y-120687857D01*
X114290476Y-120925952D01*
X114338095Y-121021190D01*
X114385714Y-121068809D01*
X114480952Y-121116428D01*
X114671428Y-121116428D01*
X114766666Y-121068809D01*
X114814285Y-121021190D01*
X114861904Y-120925952D01*
X48187142Y-120227380D02*
X47853809Y-119751190D01*
X47615714Y-120227380D02*
X47615714Y-119227380D01*
X47996666Y-119227380D01*
X48091904Y-119275000D01*
X48139523Y-119322619D01*
X48187142Y-119417857D01*
X48187142Y-119560714D01*
X48139523Y-119655952D01*
X48091904Y-119703571D01*
X47996666Y-119751190D01*
X47615714Y-119751190D01*
X48568095Y-119322619D02*
X48615714Y-119275000D01*
X48710952Y-119227380D01*
X48949047Y-119227380D01*
X49044285Y-119275000D01*
X49091904Y-119322619D01*
X49139523Y-119417857D01*
X49139523Y-119513095D01*
X49091904Y-119655952D01*
X48520476Y-120227380D01*
X49139523Y-120227380D01*
X49710952Y-119655952D02*
X49615714Y-119608333D01*
X49568095Y-119560714D01*
X49520476Y-119465476D01*
X49520476Y-119417857D01*
X49568095Y-119322619D01*
X49615714Y-119275000D01*
X49710952Y-119227380D01*
X49901428Y-119227380D01*
X49996666Y-119275000D01*
X50044285Y-119322619D01*
X50091904Y-119417857D01*
X50091904Y-119465476D01*
X50044285Y-119560714D01*
X49996666Y-119608333D01*
X49901428Y-119655952D01*
X49710952Y-119655952D01*
X49615714Y-119703571D01*
X49568095Y-119751190D01*
X49520476Y-119846428D01*
X49520476Y-120036904D01*
X49568095Y-120132142D01*
X49615714Y-120179761D01*
X49710952Y-120227380D01*
X49901428Y-120227380D01*
X49996666Y-120179761D01*
X50044285Y-120132142D01*
X50091904Y-120036904D01*
X50091904Y-119846428D01*
X50044285Y-119751190D01*
X49996666Y-119703571D01*
X49901428Y-119655952D01*
X116767142Y-120227380D02*
X116433809Y-119751190D01*
X116195714Y-120227380D02*
X116195714Y-119227380D01*
X116576666Y-119227380D01*
X116671904Y-119275000D01*
X116719523Y-119322619D01*
X116767142Y-119417857D01*
X116767142Y-119560714D01*
X116719523Y-119655952D01*
X116671904Y-119703571D01*
X116576666Y-119751190D01*
X116195714Y-119751190D01*
X117148095Y-119322619D02*
X117195714Y-119275000D01*
X117290952Y-119227380D01*
X117529047Y-119227380D01*
X117624285Y-119275000D01*
X117671904Y-119322619D01*
X117719523Y-119417857D01*
X117719523Y-119513095D01*
X117671904Y-119655952D01*
X117100476Y-120227380D01*
X117719523Y-120227380D01*
X118052857Y-119227380D02*
X118719523Y-119227380D01*
X118290952Y-120227380D01*
X53267142Y-121497380D02*
X52933809Y-121021190D01*
X52695714Y-121497380D02*
X52695714Y-120497380D01*
X53076666Y-120497380D01*
X53171904Y-120545000D01*
X53219523Y-120592619D01*
X53267142Y-120687857D01*
X53267142Y-120830714D01*
X53219523Y-120925952D01*
X53171904Y-120973571D01*
X53076666Y-121021190D01*
X52695714Y-121021190D01*
X53648095Y-120592619D02*
X53695714Y-120545000D01*
X53790952Y-120497380D01*
X54029047Y-120497380D01*
X54124285Y-120545000D01*
X54171904Y-120592619D01*
X54219523Y-120687857D01*
X54219523Y-120783095D01*
X54171904Y-120925952D01*
X53600476Y-121497380D01*
X54219523Y-121497380D01*
X55076666Y-120497380D02*
X54886190Y-120497380D01*
X54790952Y-120545000D01*
X54743333Y-120592619D01*
X54648095Y-120735476D01*
X54600476Y-120925952D01*
X54600476Y-121306904D01*
X54648095Y-121402142D01*
X54695714Y-121449761D01*
X54790952Y-121497380D01*
X54981428Y-121497380D01*
X55076666Y-121449761D01*
X55124285Y-121402142D01*
X55171904Y-121306904D01*
X55171904Y-121068809D01*
X55124285Y-120973571D01*
X55076666Y-120925952D01*
X54981428Y-120878333D01*
X54790952Y-120878333D01*
X54695714Y-120925952D01*
X54648095Y-120973571D01*
X54600476Y-121068809D01*
X107877142Y-121497380D02*
X107543809Y-121021190D01*
X107305714Y-121497380D02*
X107305714Y-120497380D01*
X107686666Y-120497380D01*
X107781904Y-120545000D01*
X107829523Y-120592619D01*
X107877142Y-120687857D01*
X107877142Y-120830714D01*
X107829523Y-120925952D01*
X107781904Y-120973571D01*
X107686666Y-121021190D01*
X107305714Y-121021190D01*
X108258095Y-120592619D02*
X108305714Y-120545000D01*
X108400952Y-120497380D01*
X108639047Y-120497380D01*
X108734285Y-120545000D01*
X108781904Y-120592619D01*
X108829523Y-120687857D01*
X108829523Y-120783095D01*
X108781904Y-120925952D01*
X108210476Y-121497380D01*
X108829523Y-121497380D01*
X109734285Y-120497380D02*
X109258095Y-120497380D01*
X109210476Y-120973571D01*
X109258095Y-120925952D01*
X109353333Y-120878333D01*
X109591428Y-120878333D01*
X109686666Y-120925952D01*
X109734285Y-120973571D01*
X109781904Y-121068809D01*
X109781904Y-121306904D01*
X109734285Y-121402142D01*
X109686666Y-121449761D01*
X109591428Y-121497380D01*
X109353333Y-121497380D01*
X109258095Y-121449761D01*
X109210476Y-121402142D01*
X53267142Y-120227380D02*
X52933809Y-119751190D01*
X52695714Y-120227380D02*
X52695714Y-119227380D01*
X53076666Y-119227380D01*
X53171904Y-119275000D01*
X53219523Y-119322619D01*
X53267142Y-119417857D01*
X53267142Y-119560714D01*
X53219523Y-119655952D01*
X53171904Y-119703571D01*
X53076666Y-119751190D01*
X52695714Y-119751190D01*
X53648095Y-119322619D02*
X53695714Y-119275000D01*
X53790952Y-119227380D01*
X54029047Y-119227380D01*
X54124285Y-119275000D01*
X54171904Y-119322619D01*
X54219523Y-119417857D01*
X54219523Y-119513095D01*
X54171904Y-119655952D01*
X53600476Y-120227380D01*
X54219523Y-120227380D01*
X55076666Y-119560714D02*
X55076666Y-120227380D01*
X54838571Y-119179761D02*
X54600476Y-119894047D01*
X55219523Y-119894047D01*
X111687142Y-120227380D02*
X111353809Y-119751190D01*
X111115714Y-120227380D02*
X111115714Y-119227380D01*
X111496666Y-119227380D01*
X111591904Y-119275000D01*
X111639523Y-119322619D01*
X111687142Y-119417857D01*
X111687142Y-119560714D01*
X111639523Y-119655952D01*
X111591904Y-119703571D01*
X111496666Y-119751190D01*
X111115714Y-119751190D01*
X112068095Y-119322619D02*
X112115714Y-119275000D01*
X112210952Y-119227380D01*
X112449047Y-119227380D01*
X112544285Y-119275000D01*
X112591904Y-119322619D01*
X112639523Y-119417857D01*
X112639523Y-119513095D01*
X112591904Y-119655952D01*
X112020476Y-120227380D01*
X112639523Y-120227380D01*
X112972857Y-119227380D02*
X113591904Y-119227380D01*
X113258571Y-119608333D01*
X113401428Y-119608333D01*
X113496666Y-119655952D01*
X113544285Y-119703571D01*
X113591904Y-119798809D01*
X113591904Y-120036904D01*
X113544285Y-120132142D01*
X113496666Y-120179761D01*
X113401428Y-120227380D01*
X113115714Y-120227380D01*
X113020476Y-120179761D01*
X112972857Y-120132142D01*
X58347142Y-121497380D02*
X58013809Y-121021190D01*
X57775714Y-121497380D02*
X57775714Y-120497380D01*
X58156666Y-120497380D01*
X58251904Y-120545000D01*
X58299523Y-120592619D01*
X58347142Y-120687857D01*
X58347142Y-120830714D01*
X58299523Y-120925952D01*
X58251904Y-120973571D01*
X58156666Y-121021190D01*
X57775714Y-121021190D01*
X58728095Y-120592619D02*
X58775714Y-120545000D01*
X58870952Y-120497380D01*
X59109047Y-120497380D01*
X59204285Y-120545000D01*
X59251904Y-120592619D01*
X59299523Y-120687857D01*
X59299523Y-120783095D01*
X59251904Y-120925952D01*
X58680476Y-121497380D01*
X59299523Y-121497380D01*
X59680476Y-120592619D02*
X59728095Y-120545000D01*
X59823333Y-120497380D01*
X60061428Y-120497380D01*
X60156666Y-120545000D01*
X60204285Y-120592619D01*
X60251904Y-120687857D01*
X60251904Y-120783095D01*
X60204285Y-120925952D01*
X59632857Y-121497380D01*
X60251904Y-121497380D01*
X102797142Y-121497380D02*
X102463809Y-121021190D01*
X102225714Y-121497380D02*
X102225714Y-120497380D01*
X102606666Y-120497380D01*
X102701904Y-120545000D01*
X102749523Y-120592619D01*
X102797142Y-120687857D01*
X102797142Y-120830714D01*
X102749523Y-120925952D01*
X102701904Y-120973571D01*
X102606666Y-121021190D01*
X102225714Y-121021190D01*
X103178095Y-120592619D02*
X103225714Y-120545000D01*
X103320952Y-120497380D01*
X103559047Y-120497380D01*
X103654285Y-120545000D01*
X103701904Y-120592619D01*
X103749523Y-120687857D01*
X103749523Y-120783095D01*
X103701904Y-120925952D01*
X103130476Y-121497380D01*
X103749523Y-121497380D01*
X104701904Y-121497380D02*
X104130476Y-121497380D01*
X104416190Y-121497380D02*
X104416190Y-120497380D01*
X104320952Y-120640238D01*
X104225714Y-120735476D01*
X104130476Y-120783095D01*
X58347142Y-120227380D02*
X58013809Y-119751190D01*
X57775714Y-120227380D02*
X57775714Y-119227380D01*
X58156666Y-119227380D01*
X58251904Y-119275000D01*
X58299523Y-119322619D01*
X58347142Y-119417857D01*
X58347142Y-119560714D01*
X58299523Y-119655952D01*
X58251904Y-119703571D01*
X58156666Y-119751190D01*
X57775714Y-119751190D01*
X58728095Y-119322619D02*
X58775714Y-119275000D01*
X58870952Y-119227380D01*
X59109047Y-119227380D01*
X59204285Y-119275000D01*
X59251904Y-119322619D01*
X59299523Y-119417857D01*
X59299523Y-119513095D01*
X59251904Y-119655952D01*
X58680476Y-120227380D01*
X59299523Y-120227380D01*
X59918571Y-119227380D02*
X60013809Y-119227380D01*
X60109047Y-119275000D01*
X60156666Y-119322619D01*
X60204285Y-119417857D01*
X60251904Y-119608333D01*
X60251904Y-119846428D01*
X60204285Y-120036904D01*
X60156666Y-120132142D01*
X60109047Y-120179761D01*
X60013809Y-120227380D01*
X59918571Y-120227380D01*
X59823333Y-120179761D01*
X59775714Y-120132142D01*
X59728095Y-120036904D01*
X59680476Y-119846428D01*
X59680476Y-119608333D01*
X59728095Y-119417857D01*
X59775714Y-119322619D01*
X59823333Y-119275000D01*
X59918571Y-119227380D01*
X106607142Y-120227380D02*
X106273809Y-119751190D01*
X106035714Y-120227380D02*
X106035714Y-119227380D01*
X106416666Y-119227380D01*
X106511904Y-119275000D01*
X106559523Y-119322619D01*
X106607142Y-119417857D01*
X106607142Y-119560714D01*
X106559523Y-119655952D01*
X106511904Y-119703571D01*
X106416666Y-119751190D01*
X106035714Y-119751190D01*
X107559523Y-120227380D02*
X106988095Y-120227380D01*
X107273809Y-120227380D02*
X107273809Y-119227380D01*
X107178571Y-119370238D01*
X107083333Y-119465476D01*
X106988095Y-119513095D01*
X108035714Y-120227380D02*
X108226190Y-120227380D01*
X108321428Y-120179761D01*
X108369047Y-120132142D01*
X108464285Y-119989285D01*
X108511904Y-119798809D01*
X108511904Y-119417857D01*
X108464285Y-119322619D01*
X108416666Y-119275000D01*
X108321428Y-119227380D01*
X108130952Y-119227380D01*
X108035714Y-119275000D01*
X107988095Y-119322619D01*
X107940476Y-119417857D01*
X107940476Y-119655952D01*
X107988095Y-119751190D01*
X108035714Y-119798809D01*
X108130952Y-119846428D01*
X108321428Y-119846428D01*
X108416666Y-119798809D01*
X108464285Y-119751190D01*
X108511904Y-119655952D01*
X63427142Y-121497380D02*
X63093809Y-121021190D01*
X62855714Y-121497380D02*
X62855714Y-120497380D01*
X63236666Y-120497380D01*
X63331904Y-120545000D01*
X63379523Y-120592619D01*
X63427142Y-120687857D01*
X63427142Y-120830714D01*
X63379523Y-120925952D01*
X63331904Y-120973571D01*
X63236666Y-121021190D01*
X62855714Y-121021190D01*
X64379523Y-121497380D02*
X63808095Y-121497380D01*
X64093809Y-121497380D02*
X64093809Y-120497380D01*
X63998571Y-120640238D01*
X63903333Y-120735476D01*
X63808095Y-120783095D01*
X64950952Y-120925952D02*
X64855714Y-120878333D01*
X64808095Y-120830714D01*
X64760476Y-120735476D01*
X64760476Y-120687857D01*
X64808095Y-120592619D01*
X64855714Y-120545000D01*
X64950952Y-120497380D01*
X65141428Y-120497380D01*
X65236666Y-120545000D01*
X65284285Y-120592619D01*
X65331904Y-120687857D01*
X65331904Y-120735476D01*
X65284285Y-120830714D01*
X65236666Y-120878333D01*
X65141428Y-120925952D01*
X64950952Y-120925952D01*
X64855714Y-120973571D01*
X64808095Y-121021190D01*
X64760476Y-121116428D01*
X64760476Y-121306904D01*
X64808095Y-121402142D01*
X64855714Y-121449761D01*
X64950952Y-121497380D01*
X65141428Y-121497380D01*
X65236666Y-121449761D01*
X65284285Y-121402142D01*
X65331904Y-121306904D01*
X65331904Y-121116428D01*
X65284285Y-121021190D01*
X65236666Y-120973571D01*
X65141428Y-120925952D01*
X83747142Y-121497380D02*
X83413809Y-121021190D01*
X83175714Y-121497380D02*
X83175714Y-120497380D01*
X83556666Y-120497380D01*
X83651904Y-120545000D01*
X83699523Y-120592619D01*
X83747142Y-120687857D01*
X83747142Y-120830714D01*
X83699523Y-120925952D01*
X83651904Y-120973571D01*
X83556666Y-121021190D01*
X83175714Y-121021190D01*
X84699523Y-121497380D02*
X84128095Y-121497380D01*
X84413809Y-121497380D02*
X84413809Y-120497380D01*
X84318571Y-120640238D01*
X84223333Y-120735476D01*
X84128095Y-120783095D01*
X85651904Y-121497380D02*
X85080476Y-121497380D01*
X85366190Y-121497380D02*
X85366190Y-120497380D01*
X85270952Y-120640238D01*
X85175714Y-120735476D01*
X85080476Y-120783095D01*
X63427142Y-120227380D02*
X63093809Y-119751190D01*
X62855714Y-120227380D02*
X62855714Y-119227380D01*
X63236666Y-119227380D01*
X63331904Y-119275000D01*
X63379523Y-119322619D01*
X63427142Y-119417857D01*
X63427142Y-119560714D01*
X63379523Y-119655952D01*
X63331904Y-119703571D01*
X63236666Y-119751190D01*
X62855714Y-119751190D01*
X64379523Y-120227380D02*
X63808095Y-120227380D01*
X64093809Y-120227380D02*
X64093809Y-119227380D01*
X63998571Y-119370238D01*
X63903333Y-119465476D01*
X63808095Y-119513095D01*
X64998571Y-119227380D02*
X65093809Y-119227380D01*
X65189047Y-119275000D01*
X65236666Y-119322619D01*
X65284285Y-119417857D01*
X65331904Y-119608333D01*
X65331904Y-119846428D01*
X65284285Y-120036904D01*
X65236666Y-120132142D01*
X65189047Y-120179761D01*
X65093809Y-120227380D01*
X64998571Y-120227380D01*
X64903333Y-120179761D01*
X64855714Y-120132142D01*
X64808095Y-120036904D01*
X64760476Y-119846428D01*
X64760476Y-119608333D01*
X64808095Y-119417857D01*
X64855714Y-119322619D01*
X64903333Y-119275000D01*
X64998571Y-119227380D01*
X84223333Y-120227380D02*
X83890000Y-119751190D01*
X83651904Y-120227380D02*
X83651904Y-119227380D01*
X84032857Y-119227380D01*
X84128095Y-119275000D01*
X84175714Y-119322619D01*
X84223333Y-119417857D01*
X84223333Y-119560714D01*
X84175714Y-119655952D01*
X84128095Y-119703571D01*
X84032857Y-119751190D01*
X83651904Y-119751190D01*
X84699523Y-120227380D02*
X84890000Y-120227380D01*
X84985238Y-120179761D01*
X85032857Y-120132142D01*
X85128095Y-119989285D01*
X85175714Y-119798809D01*
X85175714Y-119417857D01*
X85128095Y-119322619D01*
X85080476Y-119275000D01*
X84985238Y-119227380D01*
X84794761Y-119227380D01*
X84699523Y-119275000D01*
X84651904Y-119322619D01*
X84604285Y-119417857D01*
X84604285Y-119655952D01*
X84651904Y-119751190D01*
X84699523Y-119798809D01*
X84794761Y-119846428D01*
X84985238Y-119846428D01*
X85080476Y-119798809D01*
X85128095Y-119751190D01*
X85175714Y-119655952D01*
X68983333Y-121497380D02*
X68650000Y-121021190D01*
X68411904Y-121497380D02*
X68411904Y-120497380D01*
X68792857Y-120497380D01*
X68888095Y-120545000D01*
X68935714Y-120592619D01*
X68983333Y-120687857D01*
X68983333Y-120830714D01*
X68935714Y-120925952D01*
X68888095Y-120973571D01*
X68792857Y-121021190D01*
X68411904Y-121021190D01*
X69554761Y-120925952D02*
X69459523Y-120878333D01*
X69411904Y-120830714D01*
X69364285Y-120735476D01*
X69364285Y-120687857D01*
X69411904Y-120592619D01*
X69459523Y-120545000D01*
X69554761Y-120497380D01*
X69745238Y-120497380D01*
X69840476Y-120545000D01*
X69888095Y-120592619D01*
X69935714Y-120687857D01*
X69935714Y-120735476D01*
X69888095Y-120830714D01*
X69840476Y-120878333D01*
X69745238Y-120925952D01*
X69554761Y-120925952D01*
X69459523Y-120973571D01*
X69411904Y-121021190D01*
X69364285Y-121116428D01*
X69364285Y-121306904D01*
X69411904Y-121402142D01*
X69459523Y-121449761D01*
X69554761Y-121497380D01*
X69745238Y-121497380D01*
X69840476Y-121449761D01*
X69888095Y-121402142D01*
X69935714Y-121306904D01*
X69935714Y-121116428D01*
X69888095Y-121021190D01*
X69840476Y-120973571D01*
X69745238Y-120925952D01*
X68983333Y-120227380D02*
X68650000Y-119751190D01*
X68411904Y-120227380D02*
X68411904Y-119227380D01*
X68792857Y-119227380D01*
X68888095Y-119275000D01*
X68935714Y-119322619D01*
X68983333Y-119417857D01*
X68983333Y-119560714D01*
X68935714Y-119655952D01*
X68888095Y-119703571D01*
X68792857Y-119751190D01*
X68411904Y-119751190D01*
X69888095Y-119227380D02*
X69411904Y-119227380D01*
X69364285Y-119703571D01*
X69411904Y-119655952D01*
X69507142Y-119608333D01*
X69745238Y-119608333D01*
X69840476Y-119655952D01*
X69888095Y-119703571D01*
X69935714Y-119798809D01*
X69935714Y-120036904D01*
X69888095Y-120132142D01*
X69840476Y-120179761D01*
X69745238Y-120227380D01*
X69507142Y-120227380D01*
X69411904Y-120179761D01*
X69364285Y-120132142D01*
X72277619Y-111821428D02*
X72230000Y-111916666D01*
X72134761Y-112011904D01*
X71991904Y-112154761D01*
X71944285Y-112250000D01*
X71944285Y-112345238D01*
X72182380Y-112297619D02*
X72134761Y-112392857D01*
X72039523Y-112488095D01*
X71849047Y-112535714D01*
X71515714Y-112535714D01*
X71325238Y-112488095D01*
X71230000Y-112392857D01*
X71182380Y-112297619D01*
X71182380Y-112107142D01*
X71230000Y-112011904D01*
X71325238Y-111916666D01*
X71515714Y-111869047D01*
X71849047Y-111869047D01*
X72039523Y-111916666D01*
X72134761Y-112011904D01*
X72182380Y-112107142D01*
X72182380Y-112297619D01*
X72182380Y-110916666D02*
X72182380Y-111488095D01*
X72182380Y-111202380D02*
X71182380Y-111202380D01*
X71325238Y-111297619D01*
X71420476Y-111392857D01*
X71468095Y-111488095D01*
X71277619Y-110535714D02*
X71230000Y-110488095D01*
X71182380Y-110392857D01*
X71182380Y-110154761D01*
X71230000Y-110059523D01*
X71277619Y-110011904D01*
X71372857Y-109964285D01*
X71468095Y-109964285D01*
X71610952Y-110011904D01*
X72182380Y-110583333D01*
X72182380Y-109964285D01*
X120537619Y-111821428D02*
X120490000Y-111916666D01*
X120394761Y-112011904D01*
X120251904Y-112154761D01*
X120204285Y-112250000D01*
X120204285Y-112345238D01*
X120442380Y-112297619D02*
X120394761Y-112392857D01*
X120299523Y-112488095D01*
X120109047Y-112535714D01*
X119775714Y-112535714D01*
X119585238Y-112488095D01*
X119490000Y-112392857D01*
X119442380Y-112297619D01*
X119442380Y-112107142D01*
X119490000Y-112011904D01*
X119585238Y-111916666D01*
X119775714Y-111869047D01*
X120109047Y-111869047D01*
X120299523Y-111916666D01*
X120394761Y-112011904D01*
X120442380Y-112107142D01*
X120442380Y-112297619D01*
X120442380Y-110916666D02*
X120442380Y-111488095D01*
X120442380Y-111202380D02*
X119442380Y-111202380D01*
X119585238Y-111297619D01*
X119680476Y-111392857D01*
X119728095Y-111488095D01*
X120442380Y-109964285D02*
X120442380Y-110535714D01*
X120442380Y-110250000D02*
X119442380Y-110250000D01*
X119585238Y-110345238D01*
X119680476Y-110440476D01*
X119728095Y-110535714D01*
X46837619Y-112091428D02*
X46790000Y-112186666D01*
X46694761Y-112281904D01*
X46551904Y-112424761D01*
X46504285Y-112520000D01*
X46504285Y-112615238D01*
X46742380Y-112567619D02*
X46694761Y-112662857D01*
X46599523Y-112758095D01*
X46409047Y-112805714D01*
X46075714Y-112805714D01*
X45885238Y-112758095D01*
X45790000Y-112662857D01*
X45742380Y-112567619D01*
X45742380Y-112377142D01*
X45790000Y-112281904D01*
X45885238Y-112186666D01*
X46075714Y-112139047D01*
X46409047Y-112139047D01*
X46599523Y-112186666D01*
X46694761Y-112281904D01*
X46742380Y-112377142D01*
X46742380Y-112567619D01*
X46742380Y-111186666D02*
X46742380Y-111758095D01*
X46742380Y-111472380D02*
X45742380Y-111472380D01*
X45885238Y-111567619D01*
X45980476Y-111662857D01*
X46028095Y-111758095D01*
X45742380Y-110567619D02*
X45742380Y-110472380D01*
X45790000Y-110377142D01*
X45837619Y-110329523D01*
X45932857Y-110281904D01*
X46123333Y-110234285D01*
X46361428Y-110234285D01*
X46551904Y-110281904D01*
X46647142Y-110329523D01*
X46694761Y-110377142D01*
X46742380Y-110472380D01*
X46742380Y-110567619D01*
X46694761Y-110662857D01*
X46647142Y-110710476D01*
X46551904Y-110758095D01*
X46361428Y-110805714D01*
X46123333Y-110805714D01*
X45932857Y-110758095D01*
X45837619Y-110710476D01*
X45790000Y-110662857D01*
X45742380Y-110567619D01*
X115457619Y-111345238D02*
X115410000Y-111440476D01*
X115314761Y-111535714D01*
X115171904Y-111678571D01*
X115124285Y-111773809D01*
X115124285Y-111869047D01*
X115362380Y-111821428D02*
X115314761Y-111916666D01*
X115219523Y-112011904D01*
X115029047Y-112059523D01*
X114695714Y-112059523D01*
X114505238Y-112011904D01*
X114410000Y-111916666D01*
X114362380Y-111821428D01*
X114362380Y-111630952D01*
X114410000Y-111535714D01*
X114505238Y-111440476D01*
X114695714Y-111392857D01*
X115029047Y-111392857D01*
X115219523Y-111440476D01*
X115314761Y-111535714D01*
X115362380Y-111630952D01*
X115362380Y-111821428D01*
X115362380Y-110916666D02*
X115362380Y-110726190D01*
X115314761Y-110630952D01*
X115267142Y-110583333D01*
X115124285Y-110488095D01*
X114933809Y-110440476D01*
X114552857Y-110440476D01*
X114457619Y-110488095D01*
X114410000Y-110535714D01*
X114362380Y-110630952D01*
X114362380Y-110821428D01*
X114410000Y-110916666D01*
X114457619Y-110964285D01*
X114552857Y-111011904D01*
X114790952Y-111011904D01*
X114886190Y-110964285D01*
X114933809Y-110916666D01*
X114981428Y-110821428D01*
X114981428Y-110630952D01*
X114933809Y-110535714D01*
X114886190Y-110488095D01*
X114790952Y-110440476D01*
X51957619Y-111345238D02*
X51910000Y-111440476D01*
X51814761Y-111535714D01*
X51671904Y-111678571D01*
X51624285Y-111773809D01*
X51624285Y-111869047D01*
X51862380Y-111821428D02*
X51814761Y-111916666D01*
X51719523Y-112011904D01*
X51529047Y-112059523D01*
X51195714Y-112059523D01*
X51005238Y-112011904D01*
X50910000Y-111916666D01*
X50862380Y-111821428D01*
X50862380Y-111630952D01*
X50910000Y-111535714D01*
X51005238Y-111440476D01*
X51195714Y-111392857D01*
X51529047Y-111392857D01*
X51719523Y-111440476D01*
X51814761Y-111535714D01*
X51862380Y-111630952D01*
X51862380Y-111821428D01*
X51290952Y-110821428D02*
X51243333Y-110916666D01*
X51195714Y-110964285D01*
X51100476Y-111011904D01*
X51052857Y-111011904D01*
X50957619Y-110964285D01*
X50910000Y-110916666D01*
X50862380Y-110821428D01*
X50862380Y-110630952D01*
X50910000Y-110535714D01*
X50957619Y-110488095D01*
X51052857Y-110440476D01*
X51100476Y-110440476D01*
X51195714Y-110488095D01*
X51243333Y-110535714D01*
X51290952Y-110630952D01*
X51290952Y-110821428D01*
X51338571Y-110916666D01*
X51386190Y-110964285D01*
X51481428Y-111011904D01*
X51671904Y-111011904D01*
X51767142Y-110964285D01*
X51814761Y-110916666D01*
X51862380Y-110821428D01*
X51862380Y-110630952D01*
X51814761Y-110535714D01*
X51767142Y-110488095D01*
X51671904Y-110440476D01*
X51481428Y-110440476D01*
X51386190Y-110488095D01*
X51338571Y-110535714D01*
X51290952Y-110630952D01*
X110377619Y-111345238D02*
X110330000Y-111440476D01*
X110234761Y-111535714D01*
X110091904Y-111678571D01*
X110044285Y-111773809D01*
X110044285Y-111869047D01*
X110282380Y-111821428D02*
X110234761Y-111916666D01*
X110139523Y-112011904D01*
X109949047Y-112059523D01*
X109615714Y-112059523D01*
X109425238Y-112011904D01*
X109330000Y-111916666D01*
X109282380Y-111821428D01*
X109282380Y-111630952D01*
X109330000Y-111535714D01*
X109425238Y-111440476D01*
X109615714Y-111392857D01*
X109949047Y-111392857D01*
X110139523Y-111440476D01*
X110234761Y-111535714D01*
X110282380Y-111630952D01*
X110282380Y-111821428D01*
X109282380Y-111059523D02*
X109282380Y-110392857D01*
X110282380Y-110821428D01*
X57037619Y-111345238D02*
X56990000Y-111440476D01*
X56894761Y-111535714D01*
X56751904Y-111678571D01*
X56704285Y-111773809D01*
X56704285Y-111869047D01*
X56942380Y-111821428D02*
X56894761Y-111916666D01*
X56799523Y-112011904D01*
X56609047Y-112059523D01*
X56275714Y-112059523D01*
X56085238Y-112011904D01*
X55990000Y-111916666D01*
X55942380Y-111821428D01*
X55942380Y-111630952D01*
X55990000Y-111535714D01*
X56085238Y-111440476D01*
X56275714Y-111392857D01*
X56609047Y-111392857D01*
X56799523Y-111440476D01*
X56894761Y-111535714D01*
X56942380Y-111630952D01*
X56942380Y-111821428D01*
X55942380Y-110535714D02*
X55942380Y-110726190D01*
X55990000Y-110821428D01*
X56037619Y-110869047D01*
X56180476Y-110964285D01*
X56370952Y-111011904D01*
X56751904Y-111011904D01*
X56847142Y-110964285D01*
X56894761Y-110916666D01*
X56942380Y-110821428D01*
X56942380Y-110630952D01*
X56894761Y-110535714D01*
X56847142Y-110488095D01*
X56751904Y-110440476D01*
X56513809Y-110440476D01*
X56418571Y-110488095D01*
X56370952Y-110535714D01*
X56323333Y-110630952D01*
X56323333Y-110821428D01*
X56370952Y-110916666D01*
X56418571Y-110964285D01*
X56513809Y-111011904D01*
X105297619Y-111345238D02*
X105250000Y-111440476D01*
X105154761Y-111535714D01*
X105011904Y-111678571D01*
X104964285Y-111773809D01*
X104964285Y-111869047D01*
X105202380Y-111821428D02*
X105154761Y-111916666D01*
X105059523Y-112011904D01*
X104869047Y-112059523D01*
X104535714Y-112059523D01*
X104345238Y-112011904D01*
X104250000Y-111916666D01*
X104202380Y-111821428D01*
X104202380Y-111630952D01*
X104250000Y-111535714D01*
X104345238Y-111440476D01*
X104535714Y-111392857D01*
X104869047Y-111392857D01*
X105059523Y-111440476D01*
X105154761Y-111535714D01*
X105202380Y-111630952D01*
X105202380Y-111821428D01*
X104202380Y-110488095D02*
X104202380Y-110964285D01*
X104678571Y-111011904D01*
X104630952Y-110964285D01*
X104583333Y-110869047D01*
X104583333Y-110630952D01*
X104630952Y-110535714D01*
X104678571Y-110488095D01*
X104773809Y-110440476D01*
X105011904Y-110440476D01*
X105107142Y-110488095D01*
X105154761Y-110535714D01*
X105202380Y-110630952D01*
X105202380Y-110869047D01*
X105154761Y-110964285D01*
X105107142Y-111011904D01*
X62117619Y-111345238D02*
X62070000Y-111440476D01*
X61974761Y-111535714D01*
X61831904Y-111678571D01*
X61784285Y-111773809D01*
X61784285Y-111869047D01*
X62022380Y-111821428D02*
X61974761Y-111916666D01*
X61879523Y-112011904D01*
X61689047Y-112059523D01*
X61355714Y-112059523D01*
X61165238Y-112011904D01*
X61070000Y-111916666D01*
X61022380Y-111821428D01*
X61022380Y-111630952D01*
X61070000Y-111535714D01*
X61165238Y-111440476D01*
X61355714Y-111392857D01*
X61689047Y-111392857D01*
X61879523Y-111440476D01*
X61974761Y-111535714D01*
X62022380Y-111630952D01*
X62022380Y-111821428D01*
X61355714Y-110535714D02*
X62022380Y-110535714D01*
X60974761Y-110773809D02*
X61689047Y-111011904D01*
X61689047Y-110392857D01*
X82437619Y-111345238D02*
X82390000Y-111440476D01*
X82294761Y-111535714D01*
X82151904Y-111678571D01*
X82104285Y-111773809D01*
X82104285Y-111869047D01*
X82342380Y-111821428D02*
X82294761Y-111916666D01*
X82199523Y-112011904D01*
X82009047Y-112059523D01*
X81675714Y-112059523D01*
X81485238Y-112011904D01*
X81390000Y-111916666D01*
X81342380Y-111821428D01*
X81342380Y-111630952D01*
X81390000Y-111535714D01*
X81485238Y-111440476D01*
X81675714Y-111392857D01*
X82009047Y-111392857D01*
X82199523Y-111440476D01*
X82294761Y-111535714D01*
X82342380Y-111630952D01*
X82342380Y-111821428D01*
X81342380Y-111059523D02*
X81342380Y-110440476D01*
X81723333Y-110773809D01*
X81723333Y-110630952D01*
X81770952Y-110535714D01*
X81818571Y-110488095D01*
X81913809Y-110440476D01*
X82151904Y-110440476D01*
X82247142Y-110488095D01*
X82294761Y-110535714D01*
X82342380Y-110630952D01*
X82342380Y-110916666D01*
X82294761Y-111011904D01*
X82247142Y-111059523D01*
X67197619Y-111345238D02*
X67150000Y-111440476D01*
X67054761Y-111535714D01*
X66911904Y-111678571D01*
X66864285Y-111773809D01*
X66864285Y-111869047D01*
X67102380Y-111821428D02*
X67054761Y-111916666D01*
X66959523Y-112011904D01*
X66769047Y-112059523D01*
X66435714Y-112059523D01*
X66245238Y-112011904D01*
X66150000Y-111916666D01*
X66102380Y-111821428D01*
X66102380Y-111630952D01*
X66150000Y-111535714D01*
X66245238Y-111440476D01*
X66435714Y-111392857D01*
X66769047Y-111392857D01*
X66959523Y-111440476D01*
X67054761Y-111535714D01*
X67102380Y-111630952D01*
X67102380Y-111821428D01*
X66197619Y-111011904D02*
X66150000Y-110964285D01*
X66102380Y-110869047D01*
X66102380Y-110630952D01*
X66150000Y-110535714D01*
X66197619Y-110488095D01*
X66292857Y-110440476D01*
X66388095Y-110440476D01*
X66530952Y-110488095D01*
X67102380Y-111059523D01*
X67102380Y-110440476D01*
X84405714Y-64052380D02*
X84405714Y-63052380D01*
X84977142Y-64052380D02*
X84548571Y-63480952D01*
X84977142Y-63052380D02*
X84405714Y-63623809D01*
X85929523Y-64052380D02*
X85358095Y-64052380D01*
X85643809Y-64052380D02*
X85643809Y-63052380D01*
X85548571Y-63195238D01*
X85453333Y-63290476D01*
X85358095Y-63338095D01*
X86310476Y-63147619D02*
X86358095Y-63100000D01*
X86453333Y-63052380D01*
X86691428Y-63052380D01*
X86786666Y-63100000D01*
X86834285Y-63147619D01*
X86881904Y-63242857D01*
X86881904Y-63338095D01*
X86834285Y-63480952D01*
X86262857Y-64052380D01*
X86881904Y-64052380D01*
X102962380Y-68324285D02*
X101962380Y-68324285D01*
X102962380Y-67752857D02*
X102390952Y-68181428D01*
X101962380Y-67752857D02*
X102533809Y-68324285D01*
X102962380Y-66800476D02*
X102962380Y-67371904D01*
X102962380Y-67086190D02*
X101962380Y-67086190D01*
X102105238Y-67181428D01*
X102200476Y-67276666D01*
X102248095Y-67371904D01*
X102962380Y-65848095D02*
X102962380Y-66419523D01*
X102962380Y-66133809D02*
X101962380Y-66133809D01*
X102105238Y-66229047D01*
X102200476Y-66324285D01*
X102248095Y-66419523D01*
X48352380Y-102614285D02*
X47352380Y-102614285D01*
X48352380Y-102042857D02*
X47780952Y-102471428D01*
X47352380Y-102042857D02*
X47923809Y-102614285D01*
X48352380Y-101090476D02*
X48352380Y-101661904D01*
X48352380Y-101376190D02*
X47352380Y-101376190D01*
X47495238Y-101471428D01*
X47590476Y-101566666D01*
X47638095Y-101661904D01*
X47352380Y-100471428D02*
X47352380Y-100376190D01*
X47400000Y-100280952D01*
X47447619Y-100233333D01*
X47542857Y-100185714D01*
X47733333Y-100138095D01*
X47971428Y-100138095D01*
X48161904Y-100185714D01*
X48257142Y-100233333D01*
X48304761Y-100280952D01*
X48352380Y-100376190D01*
X48352380Y-100471428D01*
X48304761Y-100566666D01*
X48257142Y-100614285D01*
X48161904Y-100661904D01*
X47971428Y-100709523D01*
X47733333Y-100709523D01*
X47542857Y-100661904D01*
X47447619Y-100614285D01*
X47400000Y-100566666D01*
X47352380Y-100471428D01*
X102962380Y-79278095D02*
X101962380Y-79278095D01*
X102962380Y-78706666D02*
X102390952Y-79135238D01*
X101962380Y-78706666D02*
X102533809Y-79278095D01*
X102962380Y-78230476D02*
X102962380Y-78040000D01*
X102914761Y-77944761D01*
X102867142Y-77897142D01*
X102724285Y-77801904D01*
X102533809Y-77754285D01*
X102152857Y-77754285D01*
X102057619Y-77801904D01*
X102010000Y-77849523D01*
X101962380Y-77944761D01*
X101962380Y-78135238D01*
X102010000Y-78230476D01*
X102057619Y-78278095D01*
X102152857Y-78325714D01*
X102390952Y-78325714D01*
X102486190Y-78278095D01*
X102533809Y-78230476D01*
X102581428Y-78135238D01*
X102581428Y-77944761D01*
X102533809Y-77849523D01*
X102486190Y-77801904D01*
X102390952Y-77754285D01*
X48352380Y-90708095D02*
X47352380Y-90708095D01*
X48352380Y-90136666D02*
X47780952Y-90565238D01*
X47352380Y-90136666D02*
X47923809Y-90708095D01*
X47780952Y-89565238D02*
X47733333Y-89660476D01*
X47685714Y-89708095D01*
X47590476Y-89755714D01*
X47542857Y-89755714D01*
X47447619Y-89708095D01*
X47400000Y-89660476D01*
X47352380Y-89565238D01*
X47352380Y-89374761D01*
X47400000Y-89279523D01*
X47447619Y-89231904D01*
X47542857Y-89184285D01*
X47590476Y-89184285D01*
X47685714Y-89231904D01*
X47733333Y-89279523D01*
X47780952Y-89374761D01*
X47780952Y-89565238D01*
X47828571Y-89660476D01*
X47876190Y-89708095D01*
X47971428Y-89755714D01*
X48161904Y-89755714D01*
X48257142Y-89708095D01*
X48304761Y-89660476D01*
X48352380Y-89565238D01*
X48352380Y-89374761D01*
X48304761Y-89279523D01*
X48257142Y-89231904D01*
X48161904Y-89184285D01*
X47971428Y-89184285D01*
X47876190Y-89231904D01*
X47828571Y-89279523D01*
X47780952Y-89374761D01*
X102962380Y-90708095D02*
X101962380Y-90708095D01*
X102962380Y-90136666D02*
X102390952Y-90565238D01*
X101962380Y-90136666D02*
X102533809Y-90708095D01*
X101962380Y-89803333D02*
X101962380Y-89136666D01*
X102962380Y-89565238D01*
X48352380Y-79278095D02*
X47352380Y-79278095D01*
X48352380Y-78706666D02*
X47780952Y-79135238D01*
X47352380Y-78706666D02*
X47923809Y-79278095D01*
X47352380Y-77849523D02*
X47352380Y-78040000D01*
X47400000Y-78135238D01*
X47447619Y-78182857D01*
X47590476Y-78278095D01*
X47780952Y-78325714D01*
X48161904Y-78325714D01*
X48257142Y-78278095D01*
X48304761Y-78230476D01*
X48352380Y-78135238D01*
X48352380Y-77944761D01*
X48304761Y-77849523D01*
X48257142Y-77801904D01*
X48161904Y-77754285D01*
X47923809Y-77754285D01*
X47828571Y-77801904D01*
X47780952Y-77849523D01*
X47733333Y-77944761D01*
X47733333Y-78135238D01*
X47780952Y-78230476D01*
X47828571Y-78278095D01*
X47923809Y-78325714D01*
X102962380Y-102138095D02*
X101962380Y-102138095D01*
X102962380Y-101566666D02*
X102390952Y-101995238D01*
X101962380Y-101566666D02*
X102533809Y-102138095D01*
X101962380Y-100661904D02*
X101962380Y-101138095D01*
X102438571Y-101185714D01*
X102390952Y-101138095D01*
X102343333Y-101042857D01*
X102343333Y-100804761D01*
X102390952Y-100709523D01*
X102438571Y-100661904D01*
X102533809Y-100614285D01*
X102771904Y-100614285D01*
X102867142Y-100661904D01*
X102914761Y-100709523D01*
X102962380Y-100804761D01*
X102962380Y-101042857D01*
X102914761Y-101138095D01*
X102867142Y-101185714D01*
X48352380Y-67848095D02*
X47352380Y-67848095D01*
X48352380Y-67276666D02*
X47780952Y-67705238D01*
X47352380Y-67276666D02*
X47923809Y-67848095D01*
X47685714Y-66419523D02*
X48352380Y-66419523D01*
X47304761Y-66657619D02*
X48019047Y-66895714D01*
X48019047Y-66276666D01*
X85772380Y-102058095D02*
X84772380Y-102058095D01*
X85772380Y-101486666D02*
X85200952Y-101915238D01*
X84772380Y-101486666D02*
X85343809Y-102058095D01*
X84772380Y-101153333D02*
X84772380Y-100534285D01*
X85153333Y-100867619D01*
X85153333Y-100724761D01*
X85200952Y-100629523D01*
X85248571Y-100581904D01*
X85343809Y-100534285D01*
X85581904Y-100534285D01*
X85677142Y-100581904D01*
X85724761Y-100629523D01*
X85772380Y-100724761D01*
X85772380Y-101010476D01*
X85724761Y-101105714D01*
X85677142Y-101153333D01*
X73451904Y-64052380D02*
X73451904Y-63052380D01*
X74023333Y-64052380D02*
X73594761Y-63480952D01*
X74023333Y-63052380D02*
X73451904Y-63623809D01*
X74404285Y-63147619D02*
X74451904Y-63100000D01*
X74547142Y-63052380D01*
X74785238Y-63052380D01*
X74880476Y-63100000D01*
X74928095Y-63147619D01*
X74975714Y-63242857D01*
X74975714Y-63338095D01*
X74928095Y-63480952D01*
X74356666Y-64052380D01*
X74975714Y-64052380D01*
X85772380Y-90628095D02*
X84772380Y-90628095D01*
X85772380Y-90056666D02*
X85200952Y-90485238D01*
X84772380Y-90056666D02*
X85343809Y-90628095D01*
X85772380Y-89104285D02*
X85772380Y-89675714D01*
X85772380Y-89390000D02*
X84772380Y-89390000D01*
X84915238Y-89485238D01*
X85010476Y-89580476D01*
X85058095Y-89675714D01*
X125817142Y-60007142D02*
X125769523Y-60054761D01*
X125626666Y-60102380D01*
X125531428Y-60102380D01*
X125388571Y-60054761D01*
X125293333Y-59959523D01*
X125245714Y-59864285D01*
X125198095Y-59673809D01*
X125198095Y-59530952D01*
X125245714Y-59340476D01*
X125293333Y-59245238D01*
X125388571Y-59150000D01*
X125531428Y-59102380D01*
X125626666Y-59102380D01*
X125769523Y-59150000D01*
X125817142Y-59197619D01*
X126198095Y-59197619D02*
X126245714Y-59150000D01*
X126340952Y-59102380D01*
X126579047Y-59102380D01*
X126674285Y-59150000D01*
X126721904Y-59197619D01*
X126769523Y-59292857D01*
X126769523Y-59388095D01*
X126721904Y-59530952D01*
X126150476Y-60102380D01*
X126769523Y-60102380D01*
X127102857Y-59102380D02*
X127769523Y-59102380D01*
X127340952Y-60102380D01*
X98812380Y-67236666D02*
X98812380Y-67712857D01*
X97812380Y-67712857D01*
X97812380Y-66474761D02*
X97812380Y-66665238D01*
X97860000Y-66760476D01*
X97907619Y-66808095D01*
X98050476Y-66903333D01*
X98240952Y-66950952D01*
X98621904Y-66950952D01*
X98717142Y-66903333D01*
X98764761Y-66855714D01*
X98812380Y-66760476D01*
X98812380Y-66570000D01*
X98764761Y-66474761D01*
X98717142Y-66427142D01*
X98621904Y-66379523D01*
X98383809Y-66379523D01*
X98288571Y-66427142D01*
X98240952Y-66474761D01*
X98193333Y-66570000D01*
X98193333Y-66760476D01*
X98240952Y-66855714D01*
X98288571Y-66903333D01*
X98383809Y-66950952D01*
X48847142Y-101486666D02*
X48894761Y-101534285D01*
X48942380Y-101677142D01*
X48942380Y-101772380D01*
X48894761Y-101915238D01*
X48799523Y-102010476D01*
X48704285Y-102058095D01*
X48513809Y-102105714D01*
X48370952Y-102105714D01*
X48180476Y-102058095D01*
X48085238Y-102010476D01*
X47990000Y-101915238D01*
X47942380Y-101772380D01*
X47942380Y-101677142D01*
X47990000Y-101534285D01*
X48037619Y-101486666D01*
X47942380Y-100581904D02*
X47942380Y-101058095D01*
X48418571Y-101105714D01*
X48370952Y-101058095D01*
X48323333Y-100962857D01*
X48323333Y-100724761D01*
X48370952Y-100629523D01*
X48418571Y-100581904D01*
X48513809Y-100534285D01*
X48751904Y-100534285D01*
X48847142Y-100581904D01*
X48894761Y-100629523D01*
X48942380Y-100724761D01*
X48942380Y-100962857D01*
X48894761Y-101058095D01*
X48847142Y-101105714D01*
X44742142Y-90056666D02*
X44789761Y-90104285D01*
X44837380Y-90247142D01*
X44837380Y-90342380D01*
X44789761Y-90485238D01*
X44694523Y-90580476D01*
X44599285Y-90628095D01*
X44408809Y-90675714D01*
X44265952Y-90675714D01*
X44075476Y-90628095D01*
X43980238Y-90580476D01*
X43885000Y-90485238D01*
X43837380Y-90342380D01*
X43837380Y-90247142D01*
X43885000Y-90104285D01*
X43932619Y-90056666D01*
X44170714Y-89199523D02*
X44837380Y-89199523D01*
X43789761Y-89437619D02*
X44504047Y-89675714D01*
X44504047Y-89056666D01*
X44742142Y-78626666D02*
X44789761Y-78674285D01*
X44837380Y-78817142D01*
X44837380Y-78912380D01*
X44789761Y-79055238D01*
X44694523Y-79150476D01*
X44599285Y-79198095D01*
X44408809Y-79245714D01*
X44265952Y-79245714D01*
X44075476Y-79198095D01*
X43980238Y-79150476D01*
X43885000Y-79055238D01*
X43837380Y-78912380D01*
X43837380Y-78817142D01*
X43885000Y-78674285D01*
X43932619Y-78626666D01*
X43837380Y-78293333D02*
X43837380Y-77674285D01*
X44218333Y-78007619D01*
X44218333Y-77864761D01*
X44265952Y-77769523D01*
X44313571Y-77721904D01*
X44408809Y-77674285D01*
X44646904Y-77674285D01*
X44742142Y-77721904D01*
X44789761Y-77769523D01*
X44837380Y-77864761D01*
X44837380Y-78150476D01*
X44789761Y-78245714D01*
X44742142Y-78293333D01*
X44742142Y-67196666D02*
X44789761Y-67244285D01*
X44837380Y-67387142D01*
X44837380Y-67482380D01*
X44789761Y-67625238D01*
X44694523Y-67720476D01*
X44599285Y-67768095D01*
X44408809Y-67815714D01*
X44265952Y-67815714D01*
X44075476Y-67768095D01*
X43980238Y-67720476D01*
X43885000Y-67625238D01*
X43837380Y-67482380D01*
X43837380Y-67387142D01*
X43885000Y-67244285D01*
X43932619Y-67196666D01*
X43932619Y-66815714D02*
X43885000Y-66768095D01*
X43837380Y-66672857D01*
X43837380Y-66434761D01*
X43885000Y-66339523D01*
X43932619Y-66291904D01*
X44027857Y-66244285D01*
X44123095Y-66244285D01*
X44265952Y-66291904D01*
X44837380Y-66863333D01*
X44837380Y-66244285D01*
X74063333Y-60442142D02*
X74015714Y-60489761D01*
X73872857Y-60537380D01*
X73777619Y-60537380D01*
X73634761Y-60489761D01*
X73539523Y-60394523D01*
X73491904Y-60299285D01*
X73444285Y-60108809D01*
X73444285Y-59965952D01*
X73491904Y-59775476D01*
X73539523Y-59680238D01*
X73634761Y-59585000D01*
X73777619Y-59537380D01*
X73872857Y-59537380D01*
X74015714Y-59585000D01*
X74063333Y-59632619D01*
X75015714Y-60537380D02*
X74444285Y-60537380D01*
X74730000Y-60537380D02*
X74730000Y-59537380D01*
X74634761Y-59680238D01*
X74539523Y-59775476D01*
X74444285Y-59823095D01*
X123822380Y-76208404D02*
X124631904Y-76208404D01*
X124727142Y-76160785D01*
X124774761Y-76113166D01*
X124822380Y-76017928D01*
X124822380Y-75827452D01*
X124774761Y-75732214D01*
X124727142Y-75684595D01*
X124631904Y-75636976D01*
X123822380Y-75636976D01*
X124822380Y-74636976D02*
X124822380Y-75208404D01*
X124822380Y-74922690D02*
X123822380Y-74922690D01*
X123965238Y-75017928D01*
X124060476Y-75113166D01*
X124108095Y-75208404D01*
X59906666Y-136864761D02*
X60049523Y-136912380D01*
X60287619Y-136912380D01*
X60382857Y-136864761D01*
X60430476Y-136817142D01*
X60478095Y-136721904D01*
X60478095Y-136626666D01*
X60430476Y-136531428D01*
X60382857Y-136483809D01*
X60287619Y-136436190D01*
X60097142Y-136388571D01*
X60001904Y-136340952D01*
X59954285Y-136293333D01*
X59906666Y-136198095D01*
X59906666Y-136102857D01*
X59954285Y-136007619D01*
X60001904Y-135960000D01*
X60097142Y-135912380D01*
X60335238Y-135912380D01*
X60478095Y-135960000D01*
X60811428Y-135912380D02*
X61049523Y-136912380D01*
X61240000Y-136198095D01*
X61430476Y-136912380D01*
X61668571Y-135912380D01*
X62001904Y-136007619D02*
X62049523Y-135960000D01*
X62144761Y-135912380D01*
X62382857Y-135912380D01*
X62478095Y-135960000D01*
X62525714Y-136007619D01*
X62573333Y-136102857D01*
X62573333Y-136198095D01*
X62525714Y-136340952D01*
X61954285Y-136912380D01*
X62573333Y-136912380D01*
X76996666Y-136914761D02*
X77139523Y-136962380D01*
X77377619Y-136962380D01*
X77472857Y-136914761D01*
X77520476Y-136867142D01*
X77568095Y-136771904D01*
X77568095Y-136676666D01*
X77520476Y-136581428D01*
X77472857Y-136533809D01*
X77377619Y-136486190D01*
X77187142Y-136438571D01*
X77091904Y-136390952D01*
X77044285Y-136343333D01*
X76996666Y-136248095D01*
X76996666Y-136152857D01*
X77044285Y-136057619D01*
X77091904Y-136010000D01*
X77187142Y-135962380D01*
X77425238Y-135962380D01*
X77568095Y-136010000D01*
X77901428Y-135962380D02*
X78139523Y-136962380D01*
X78330000Y-136248095D01*
X78520476Y-136962380D01*
X78758571Y-135962380D01*
X79663333Y-136962380D02*
X79091904Y-136962380D01*
X79377619Y-136962380D02*
X79377619Y-135962380D01*
X79282380Y-136105238D01*
X79187142Y-136200476D01*
X79091904Y-136248095D01*
X70272380Y-137345357D02*
X69796190Y-137678690D01*
X70272380Y-137916785D02*
X69272380Y-137916785D01*
X69272380Y-137535833D01*
X69320000Y-137440595D01*
X69367619Y-137392976D01*
X69462857Y-137345357D01*
X69605714Y-137345357D01*
X69700952Y-137392976D01*
X69748571Y-137440595D01*
X69796190Y-137535833D01*
X69796190Y-137916785D01*
X70272380Y-136392976D02*
X70272380Y-136964404D01*
X70272380Y-136678690D02*
X69272380Y-136678690D01*
X69415238Y-136773928D01*
X69510476Y-136869166D01*
X69558095Y-136964404D01*
X69272380Y-136059642D02*
X69272380Y-135392976D01*
X70272380Y-135821547D01*
X86662380Y-137345357D02*
X86186190Y-137678690D01*
X86662380Y-137916785D02*
X85662380Y-137916785D01*
X85662380Y-137535833D01*
X85710000Y-137440595D01*
X85757619Y-137392976D01*
X85852857Y-137345357D01*
X85995714Y-137345357D01*
X86090952Y-137392976D01*
X86138571Y-137440595D01*
X86186190Y-137535833D01*
X86186190Y-137916785D01*
X86662380Y-136392976D02*
X86662380Y-136964404D01*
X86662380Y-136678690D02*
X85662380Y-136678690D01*
X85805238Y-136773928D01*
X85900476Y-136869166D01*
X85948095Y-136964404D01*
X85662380Y-135535833D02*
X85662380Y-135726309D01*
X85710000Y-135821547D01*
X85757619Y-135869166D01*
X85900476Y-135964404D01*
X86090952Y-136012023D01*
X86471904Y-136012023D01*
X86567142Y-135964404D01*
X86614761Y-135916785D01*
X86662380Y-135821547D01*
X86662380Y-135631071D01*
X86614761Y-135535833D01*
X86567142Y-135488214D01*
X86471904Y-135440595D01*
X86233809Y-135440595D01*
X86138571Y-135488214D01*
X86090952Y-135535833D01*
X86043333Y-135631071D01*
X86043333Y-135821547D01*
X86090952Y-135916785D01*
X86138571Y-135964404D01*
X86233809Y-136012023D01*
X102797142Y-133562380D02*
X102463809Y-133086190D01*
X102225714Y-133562380D02*
X102225714Y-132562380D01*
X102606666Y-132562380D01*
X102701904Y-132610000D01*
X102749523Y-132657619D01*
X102797142Y-132752857D01*
X102797142Y-132895714D01*
X102749523Y-132990952D01*
X102701904Y-133038571D01*
X102606666Y-133086190D01*
X102225714Y-133086190D01*
X103749523Y-133562380D02*
X103178095Y-133562380D01*
X103463809Y-133562380D02*
X103463809Y-132562380D01*
X103368571Y-132705238D01*
X103273333Y-132800476D01*
X103178095Y-132848095D01*
X104654285Y-132562380D02*
X104178095Y-132562380D01*
X104130476Y-133038571D01*
X104178095Y-132990952D01*
X104273333Y-132943333D01*
X104511428Y-132943333D01*
X104606666Y-132990952D01*
X104654285Y-133038571D01*
X104701904Y-133133809D01*
X104701904Y-133371904D01*
X104654285Y-133467142D01*
X104606666Y-133514761D01*
X104511428Y-133562380D01*
X104273333Y-133562380D01*
X104178095Y-133514761D01*
X104130476Y-133467142D01*
X110417142Y-133562380D02*
X110083809Y-133086190D01*
X109845714Y-133562380D02*
X109845714Y-132562380D01*
X110226666Y-132562380D01*
X110321904Y-132610000D01*
X110369523Y-132657619D01*
X110417142Y-132752857D01*
X110417142Y-132895714D01*
X110369523Y-132990952D01*
X110321904Y-133038571D01*
X110226666Y-133086190D01*
X109845714Y-133086190D01*
X111369523Y-133562380D02*
X110798095Y-133562380D01*
X111083809Y-133562380D02*
X111083809Y-132562380D01*
X110988571Y-132705238D01*
X110893333Y-132800476D01*
X110798095Y-132848095D01*
X112226666Y-132895714D02*
X112226666Y-133562380D01*
X111988571Y-132514761D02*
X111750476Y-133229047D01*
X112369523Y-133229047D01*
X118037142Y-133562380D02*
X117703809Y-133086190D01*
X117465714Y-133562380D02*
X117465714Y-132562380D01*
X117846666Y-132562380D01*
X117941904Y-132610000D01*
X117989523Y-132657619D01*
X118037142Y-132752857D01*
X118037142Y-132895714D01*
X117989523Y-132990952D01*
X117941904Y-133038571D01*
X117846666Y-133086190D01*
X117465714Y-133086190D01*
X118989523Y-133562380D02*
X118418095Y-133562380D01*
X118703809Y-133562380D02*
X118703809Y-132562380D01*
X118608571Y-132705238D01*
X118513333Y-132800476D01*
X118418095Y-132848095D01*
X119322857Y-132562380D02*
X119941904Y-132562380D01*
X119608571Y-132943333D01*
X119751428Y-132943333D01*
X119846666Y-132990952D01*
X119894285Y-133038571D01*
X119941904Y-133133809D01*
X119941904Y-133371904D01*
X119894285Y-133467142D01*
X119846666Y-133514761D01*
X119751428Y-133562380D01*
X119465714Y-133562380D01*
X119370476Y-133514761D01*
X119322857Y-133467142D01*
X128572380Y-137345357D02*
X128096190Y-137678690D01*
X128572380Y-137916785D02*
X127572380Y-137916785D01*
X127572380Y-137535833D01*
X127620000Y-137440595D01*
X127667619Y-137392976D01*
X127762857Y-137345357D01*
X127905714Y-137345357D01*
X128000952Y-137392976D01*
X128048571Y-137440595D01*
X128096190Y-137535833D01*
X128096190Y-137916785D01*
X128572380Y-136392976D02*
X128572380Y-136964404D01*
X128572380Y-136678690D02*
X127572380Y-136678690D01*
X127715238Y-136773928D01*
X127810476Y-136869166D01*
X127858095Y-136964404D01*
X127667619Y-136012023D02*
X127620000Y-135964404D01*
X127572380Y-135869166D01*
X127572380Y-135631071D01*
X127620000Y-135535833D01*
X127667619Y-135488214D01*
X127762857Y-135440595D01*
X127858095Y-135440595D01*
X128000952Y-135488214D01*
X128572380Y-136059642D01*
X128572380Y-135440595D01*
X79143333Y-120227380D02*
X78810000Y-119751190D01*
X78571904Y-120227380D02*
X78571904Y-119227380D01*
X78952857Y-119227380D01*
X79048095Y-119275000D01*
X79095714Y-119322619D01*
X79143333Y-119417857D01*
X79143333Y-119560714D01*
X79095714Y-119655952D01*
X79048095Y-119703571D01*
X78952857Y-119751190D01*
X78571904Y-119751190D01*
X79476666Y-119227380D02*
X80143333Y-119227380D01*
X79714761Y-120227380D01*
X79143333Y-121497380D02*
X78810000Y-121021190D01*
X78571904Y-121497380D02*
X78571904Y-120497380D01*
X78952857Y-120497380D01*
X79048095Y-120545000D01*
X79095714Y-120592619D01*
X79143333Y-120687857D01*
X79143333Y-120830714D01*
X79095714Y-120925952D01*
X79048095Y-120973571D01*
X78952857Y-121021190D01*
X78571904Y-121021190D01*
X80000476Y-120497380D02*
X79810000Y-120497380D01*
X79714761Y-120545000D01*
X79667142Y-120592619D01*
X79571904Y-120735476D01*
X79524285Y-120925952D01*
X79524285Y-121306904D01*
X79571904Y-121402142D01*
X79619523Y-121449761D01*
X79714761Y-121497380D01*
X79905238Y-121497380D01*
X80000476Y-121449761D01*
X80048095Y-121402142D01*
X80095714Y-121306904D01*
X80095714Y-121068809D01*
X80048095Y-120973571D01*
X80000476Y-120925952D01*
X79905238Y-120878333D01*
X79714761Y-120878333D01*
X79619523Y-120925952D01*
X79571904Y-120973571D01*
X79524285Y-121068809D01*
X93732380Y-53679166D02*
X93256190Y-54012500D01*
X93732380Y-54250595D02*
X92732380Y-54250595D01*
X92732380Y-53869642D01*
X92780000Y-53774404D01*
X92827619Y-53726785D01*
X92922857Y-53679166D01*
X93065714Y-53679166D01*
X93160952Y-53726785D01*
X93208571Y-53774404D01*
X93256190Y-53869642D01*
X93256190Y-54250595D01*
X93065714Y-52822023D02*
X93732380Y-52822023D01*
X92684761Y-53060119D02*
X93399047Y-53298214D01*
X93399047Y-52679166D01*
X96505833Y-44747380D02*
X96172500Y-44271190D01*
X95934404Y-44747380D02*
X95934404Y-43747380D01*
X96315357Y-43747380D01*
X96410595Y-43795000D01*
X96458214Y-43842619D01*
X96505833Y-43937857D01*
X96505833Y-44080714D01*
X96458214Y-44175952D01*
X96410595Y-44223571D01*
X96315357Y-44271190D01*
X95934404Y-44271190D01*
X96839166Y-43747380D02*
X97458214Y-43747380D01*
X97124880Y-44128333D01*
X97267738Y-44128333D01*
X97362976Y-44175952D01*
X97410595Y-44223571D01*
X97458214Y-44318809D01*
X97458214Y-44556904D01*
X97410595Y-44652142D01*
X97362976Y-44699761D01*
X97267738Y-44747380D01*
X96982023Y-44747380D01*
X96886785Y-44699761D01*
X96839166Y-44652142D01*
X72777380Y-58981666D02*
X72301190Y-59315000D01*
X72777380Y-59553095D02*
X71777380Y-59553095D01*
X71777380Y-59172142D01*
X71825000Y-59076904D01*
X71872619Y-59029285D01*
X71967857Y-58981666D01*
X72110714Y-58981666D01*
X72205952Y-59029285D01*
X72253571Y-59076904D01*
X72301190Y-59172142D01*
X72301190Y-59553095D01*
X71872619Y-58600714D02*
X71825000Y-58553095D01*
X71777380Y-58457857D01*
X71777380Y-58219761D01*
X71825000Y-58124523D01*
X71872619Y-58076904D01*
X71967857Y-58029285D01*
X72063095Y-58029285D01*
X72205952Y-58076904D01*
X72777380Y-58648333D01*
X72777380Y-58029285D01*
X70237380Y-58981666D02*
X69761190Y-59315000D01*
X70237380Y-59553095D02*
X69237380Y-59553095D01*
X69237380Y-59172142D01*
X69285000Y-59076904D01*
X69332619Y-59029285D01*
X69427857Y-58981666D01*
X69570714Y-58981666D01*
X69665952Y-59029285D01*
X69713571Y-59076904D01*
X69761190Y-59172142D01*
X69761190Y-59553095D01*
X70237380Y-58029285D02*
X70237380Y-58600714D01*
X70237380Y-58315000D02*
X69237380Y-58315000D01*
X69380238Y-58410238D01*
X69475476Y-58505476D01*
X69523095Y-58600714D01*
X77357619Y-111345238D02*
X77310000Y-111440476D01*
X77214761Y-111535714D01*
X77071904Y-111678571D01*
X77024285Y-111773809D01*
X77024285Y-111869047D01*
X77262380Y-111821428D02*
X77214761Y-111916666D01*
X77119523Y-112011904D01*
X76929047Y-112059523D01*
X76595714Y-112059523D01*
X76405238Y-112011904D01*
X76310000Y-111916666D01*
X76262380Y-111821428D01*
X76262380Y-111630952D01*
X76310000Y-111535714D01*
X76405238Y-111440476D01*
X76595714Y-111392857D01*
X76929047Y-111392857D01*
X77119523Y-111440476D01*
X77214761Y-111535714D01*
X77262380Y-111630952D01*
X77262380Y-111821428D01*
X77262380Y-110440476D02*
X77262380Y-111011904D01*
X77262380Y-110726190D02*
X76262380Y-110726190D01*
X76405238Y-110821428D01*
X76500476Y-110916666D01*
X76548095Y-111011904D01*
X97167380Y-122264166D02*
X97167380Y-122740357D01*
X96167380Y-122740357D01*
X96167380Y-122026071D02*
X96167380Y-121359404D01*
X97167380Y-121787976D01*
X98812380Y-78666666D02*
X98812380Y-79142857D01*
X97812380Y-79142857D01*
X97812380Y-77857142D02*
X97812380Y-78333333D01*
X98288571Y-78380952D01*
X98240952Y-78333333D01*
X98193333Y-78238095D01*
X98193333Y-78000000D01*
X98240952Y-77904761D01*
X98288571Y-77857142D01*
X98383809Y-77809523D01*
X98621904Y-77809523D01*
X98717142Y-77857142D01*
X98764761Y-77904761D01*
X98812380Y-78000000D01*
X98812380Y-78238095D01*
X98764761Y-78333333D01*
X98717142Y-78380952D01*
X98812380Y-90096666D02*
X98812380Y-90572857D01*
X97812380Y-90572857D01*
X98145714Y-89334761D02*
X98812380Y-89334761D01*
X97764761Y-89572857D02*
X98479047Y-89810952D01*
X98479047Y-89191904D01*
X98812380Y-101526666D02*
X98812380Y-102002857D01*
X97812380Y-102002857D01*
X97812380Y-101288571D02*
X97812380Y-100669523D01*
X98193333Y-101002857D01*
X98193333Y-100860000D01*
X98240952Y-100764761D01*
X98288571Y-100717142D01*
X98383809Y-100669523D01*
X98621904Y-100669523D01*
X98717142Y-100717142D01*
X98764761Y-100764761D01*
X98812380Y-100860000D01*
X98812380Y-101145714D01*
X98764761Y-101240952D01*
X98717142Y-101288571D01*
X89922380Y-101526666D02*
X89922380Y-102002857D01*
X88922380Y-102002857D01*
X89017619Y-101240952D02*
X88970000Y-101193333D01*
X88922380Y-101098095D01*
X88922380Y-100860000D01*
X88970000Y-100764761D01*
X89017619Y-100717142D01*
X89112857Y-100669523D01*
X89208095Y-100669523D01*
X89350952Y-100717142D01*
X89922380Y-101288571D01*
X89922380Y-100669523D01*
X89922380Y-90096666D02*
X89922380Y-90572857D01*
X88922380Y-90572857D01*
X89922380Y-89239523D02*
X89922380Y-89810952D01*
X89922380Y-89525238D02*
X88922380Y-89525238D01*
X89065238Y-89620476D01*
X89160476Y-89715714D01*
X89208095Y-89810952D01*
X45956666Y-122612380D02*
X45956666Y-123326666D01*
X45909047Y-123469523D01*
X45813809Y-123564761D01*
X45670952Y-123612380D01*
X45575714Y-123612380D01*
X46909047Y-122612380D02*
X46432857Y-122612380D01*
X46385238Y-123088571D01*
X46432857Y-123040952D01*
X46528095Y-122993333D01*
X46766190Y-122993333D01*
X46861428Y-123040952D01*
X46909047Y-123088571D01*
X46956666Y-123183809D01*
X46956666Y-123421904D01*
X46909047Y-123517142D01*
X46861428Y-123564761D01*
X46766190Y-123612380D01*
X46528095Y-123612380D01*
X46432857Y-123564761D01*
X46385238Y-123517142D01*
X129141666Y-52552380D02*
X129141666Y-53266666D01*
X129094047Y-53409523D01*
X128998809Y-53504761D01*
X128855952Y-53552380D01*
X128760714Y-53552380D01*
X130046428Y-52885714D02*
X130046428Y-53552380D01*
X129808333Y-52504761D02*
X129570238Y-53219047D01*
X130189285Y-53219047D01*
X106916666Y-59092380D02*
X106916666Y-59806666D01*
X106869047Y-59949523D01*
X106773809Y-60044761D01*
X106630952Y-60092380D01*
X106535714Y-60092380D01*
X107345238Y-59187619D02*
X107392857Y-59140000D01*
X107488095Y-59092380D01*
X107726190Y-59092380D01*
X107821428Y-59140000D01*
X107869047Y-59187619D01*
X107916666Y-59282857D01*
X107916666Y-59378095D01*
X107869047Y-59520952D01*
X107297619Y-60092380D01*
X107916666Y-60092380D01*
X57386666Y-59092380D02*
X57386666Y-59806666D01*
X57339047Y-59949523D01*
X57243809Y-60044761D01*
X57100952Y-60092380D01*
X57005714Y-60092380D01*
X58386666Y-60092380D02*
X57815238Y-60092380D01*
X58100952Y-60092380D02*
X58100952Y-59092380D01*
X58005714Y-59235238D01*
X57910476Y-59330476D01*
X57815238Y-59378095D01*
X98415714Y-136682380D02*
X98415714Y-135682380D01*
X98653809Y-135682380D01*
X98796666Y-135730000D01*
X98891904Y-135825238D01*
X98939523Y-135920476D01*
X98987142Y-136110952D01*
X98987142Y-136253809D01*
X98939523Y-136444285D01*
X98891904Y-136539523D01*
X98796666Y-136634761D01*
X98653809Y-136682380D01*
X98415714Y-136682380D01*
X99368095Y-135777619D02*
X99415714Y-135730000D01*
X99510952Y-135682380D01*
X99749047Y-135682380D01*
X99844285Y-135730000D01*
X99891904Y-135777619D01*
X99939523Y-135872857D01*
X99939523Y-135968095D01*
X99891904Y-136110952D01*
X99320476Y-136682380D01*
X99939523Y-136682380D01*
X100558571Y-135682380D02*
X100653809Y-135682380D01*
X100749047Y-135730000D01*
X100796666Y-135777619D01*
X100844285Y-135872857D01*
X100891904Y-136063333D01*
X100891904Y-136301428D01*
X100844285Y-136491904D01*
X100796666Y-136587142D01*
X100749047Y-136634761D01*
X100653809Y-136682380D01*
X100558571Y-136682380D01*
X100463333Y-136634761D01*
X100415714Y-136587142D01*
X100368095Y-136491904D01*
X100320476Y-136301428D01*
X100320476Y-136063333D01*
X100368095Y-135872857D01*
X100415714Y-135777619D01*
X100463333Y-135730000D01*
X100558571Y-135682380D01*
X106035714Y-136682380D02*
X106035714Y-135682380D01*
X106273809Y-135682380D01*
X106416666Y-135730000D01*
X106511904Y-135825238D01*
X106559523Y-135920476D01*
X106607142Y-136110952D01*
X106607142Y-136253809D01*
X106559523Y-136444285D01*
X106511904Y-136539523D01*
X106416666Y-136634761D01*
X106273809Y-136682380D01*
X106035714Y-136682380D01*
X107559523Y-136682380D02*
X106988095Y-136682380D01*
X107273809Y-136682380D02*
X107273809Y-135682380D01*
X107178571Y-135825238D01*
X107083333Y-135920476D01*
X106988095Y-135968095D01*
X108035714Y-136682380D02*
X108226190Y-136682380D01*
X108321428Y-136634761D01*
X108369047Y-136587142D01*
X108464285Y-136444285D01*
X108511904Y-136253809D01*
X108511904Y-135872857D01*
X108464285Y-135777619D01*
X108416666Y-135730000D01*
X108321428Y-135682380D01*
X108130952Y-135682380D01*
X108035714Y-135730000D01*
X107988095Y-135777619D01*
X107940476Y-135872857D01*
X107940476Y-136110952D01*
X107988095Y-136206190D01*
X108035714Y-136253809D01*
X108130952Y-136301428D01*
X108321428Y-136301428D01*
X108416666Y-136253809D01*
X108464285Y-136206190D01*
X108511904Y-136110952D01*
X113655714Y-136682380D02*
X113655714Y-135682380D01*
X113893809Y-135682380D01*
X114036666Y-135730000D01*
X114131904Y-135825238D01*
X114179523Y-135920476D01*
X114227142Y-136110952D01*
X114227142Y-136253809D01*
X114179523Y-136444285D01*
X114131904Y-136539523D01*
X114036666Y-136634761D01*
X113893809Y-136682380D01*
X113655714Y-136682380D01*
X115179523Y-136682380D02*
X114608095Y-136682380D01*
X114893809Y-136682380D02*
X114893809Y-135682380D01*
X114798571Y-135825238D01*
X114703333Y-135920476D01*
X114608095Y-135968095D01*
X115750952Y-136110952D02*
X115655714Y-136063333D01*
X115608095Y-136015714D01*
X115560476Y-135920476D01*
X115560476Y-135872857D01*
X115608095Y-135777619D01*
X115655714Y-135730000D01*
X115750952Y-135682380D01*
X115941428Y-135682380D01*
X116036666Y-135730000D01*
X116084285Y-135777619D01*
X116131904Y-135872857D01*
X116131904Y-135920476D01*
X116084285Y-136015714D01*
X116036666Y-136063333D01*
X115941428Y-136110952D01*
X115750952Y-136110952D01*
X115655714Y-136158571D01*
X115608095Y-136206190D01*
X115560476Y-136301428D01*
X115560476Y-136491904D01*
X115608095Y-136587142D01*
X115655714Y-136634761D01*
X115750952Y-136682380D01*
X115941428Y-136682380D01*
X116036666Y-136634761D01*
X116084285Y-136587142D01*
X116131904Y-136491904D01*
X116131904Y-136301428D01*
X116084285Y-136206190D01*
X116036666Y-136158571D01*
X115941428Y-136110952D01*
X121275714Y-136682380D02*
X121275714Y-135682380D01*
X121513809Y-135682380D01*
X121656666Y-135730000D01*
X121751904Y-135825238D01*
X121799523Y-135920476D01*
X121847142Y-136110952D01*
X121847142Y-136253809D01*
X121799523Y-136444285D01*
X121751904Y-136539523D01*
X121656666Y-136634761D01*
X121513809Y-136682380D01*
X121275714Y-136682380D01*
X122799523Y-136682380D02*
X122228095Y-136682380D01*
X122513809Y-136682380D02*
X122513809Y-135682380D01*
X122418571Y-135825238D01*
X122323333Y-135920476D01*
X122228095Y-135968095D01*
X123132857Y-135682380D02*
X123799523Y-135682380D01*
X123370952Y-136682380D01*
X93176904Y-49742380D02*
X93176904Y-48742380D01*
X93415000Y-48742380D01*
X93557857Y-48790000D01*
X93653095Y-48885238D01*
X93700714Y-48980476D01*
X93748333Y-49170952D01*
X93748333Y-49313809D01*
X93700714Y-49504285D01*
X93653095Y-49599523D01*
X93557857Y-49694761D01*
X93415000Y-49742380D01*
X93176904Y-49742380D01*
X94605476Y-49075714D02*
X94605476Y-49742380D01*
X94367380Y-48694761D02*
X94129285Y-49409047D01*
X94748333Y-49409047D01*
X96716904Y-109432380D02*
X96716904Y-108432380D01*
X96955000Y-108432380D01*
X97097857Y-108480000D01*
X97193095Y-108575238D01*
X97240714Y-108670476D01*
X97288333Y-108860952D01*
X97288333Y-109003809D01*
X97240714Y-109194285D01*
X97193095Y-109289523D01*
X97097857Y-109384761D01*
X96955000Y-109432380D01*
X96716904Y-109432380D01*
X97621666Y-108432380D02*
X98240714Y-108432380D01*
X97907380Y-108813333D01*
X98050238Y-108813333D01*
X98145476Y-108860952D01*
X98193095Y-108908571D01*
X98240714Y-109003809D01*
X98240714Y-109241904D01*
X98193095Y-109337142D01*
X98145476Y-109384761D01*
X98050238Y-109432380D01*
X97764523Y-109432380D01*
X97669285Y-109384761D01*
X97621666Y-109337142D01*
X90271904Y-109472380D02*
X90271904Y-108472380D01*
X90510000Y-108472380D01*
X90652857Y-108520000D01*
X90748095Y-108615238D01*
X90795714Y-108710476D01*
X90843333Y-108900952D01*
X90843333Y-109043809D01*
X90795714Y-109234285D01*
X90748095Y-109329523D01*
X90652857Y-109424761D01*
X90510000Y-109472380D01*
X90271904Y-109472380D01*
X91224285Y-108567619D02*
X91271904Y-108520000D01*
X91367142Y-108472380D01*
X91605238Y-108472380D01*
X91700476Y-108520000D01*
X91748095Y-108567619D01*
X91795714Y-108662857D01*
X91795714Y-108758095D01*
X91748095Y-108900952D01*
X91176666Y-109472380D01*
X91795714Y-109472380D01*
X67141904Y-51647380D02*
X67141904Y-50647380D01*
X67380000Y-50647380D01*
X67522857Y-50695000D01*
X67618095Y-50790238D01*
X67665714Y-50885476D01*
X67713333Y-51075952D01*
X67713333Y-51218809D01*
X67665714Y-51409285D01*
X67618095Y-51504523D01*
X67522857Y-51599761D01*
X67380000Y-51647380D01*
X67141904Y-51647380D01*
X68665714Y-51647380D02*
X68094285Y-51647380D01*
X68380000Y-51647380D02*
X68380000Y-50647380D01*
X68284761Y-50790238D01*
X68189523Y-50885476D01*
X68094285Y-50933095D01*
X92452142Y-117242857D02*
X92499761Y-117290476D01*
X92547380Y-117433333D01*
X92547380Y-117528571D01*
X92499761Y-117671428D01*
X92404523Y-117766666D01*
X92309285Y-117814285D01*
X92118809Y-117861904D01*
X91975952Y-117861904D01*
X91785476Y-117814285D01*
X91690238Y-117766666D01*
X91595000Y-117671428D01*
X91547380Y-117528571D01*
X91547380Y-117433333D01*
X91595000Y-117290476D01*
X91642619Y-117242857D01*
X91642619Y-116861904D02*
X91595000Y-116814285D01*
X91547380Y-116719047D01*
X91547380Y-116480952D01*
X91595000Y-116385714D01*
X91642619Y-116338095D01*
X91737857Y-116290476D01*
X91833095Y-116290476D01*
X91975952Y-116338095D01*
X92547380Y-116909523D01*
X92547380Y-116290476D01*
X91547380Y-115385714D02*
X91547380Y-115861904D01*
X92023571Y-115909523D01*
X91975952Y-115861904D01*
X91928333Y-115766666D01*
X91928333Y-115528571D01*
X91975952Y-115433333D01*
X92023571Y-115385714D01*
X92118809Y-115338095D01*
X92356904Y-115338095D01*
X92452142Y-115385714D01*
X92499761Y-115433333D01*
X92547380Y-115528571D01*
X92547380Y-115766666D01*
X92499761Y-115861904D01*
X92452142Y-115909523D01*
X79357142Y-130537142D02*
X79309523Y-130584761D01*
X79166666Y-130632380D01*
X79071428Y-130632380D01*
X78928571Y-130584761D01*
X78833333Y-130489523D01*
X78785714Y-130394285D01*
X78738095Y-130203809D01*
X78738095Y-130060952D01*
X78785714Y-129870476D01*
X78833333Y-129775238D01*
X78928571Y-129680000D01*
X79071428Y-129632380D01*
X79166666Y-129632380D01*
X79309523Y-129680000D01*
X79357142Y-129727619D01*
X79738095Y-129727619D02*
X79785714Y-129680000D01*
X79880952Y-129632380D01*
X80119047Y-129632380D01*
X80214285Y-129680000D01*
X80261904Y-129727619D01*
X80309523Y-129822857D01*
X80309523Y-129918095D01*
X80261904Y-130060952D01*
X79690476Y-130632380D01*
X80309523Y-130632380D01*
X81166666Y-129965714D02*
X81166666Y-130632380D01*
X80928571Y-129584761D02*
X80690476Y-130299047D01*
X81309523Y-130299047D01*
X97532142Y-117025357D02*
X97579761Y-117072976D01*
X97627380Y-117215833D01*
X97627380Y-117311071D01*
X97579761Y-117453928D01*
X97484523Y-117549166D01*
X97389285Y-117596785D01*
X97198809Y-117644404D01*
X97055952Y-117644404D01*
X96865476Y-117596785D01*
X96770238Y-117549166D01*
X96675000Y-117453928D01*
X96627380Y-117311071D01*
X96627380Y-117215833D01*
X96675000Y-117072976D01*
X96722619Y-117025357D01*
X96722619Y-116644404D02*
X96675000Y-116596785D01*
X96627380Y-116501547D01*
X96627380Y-116263452D01*
X96675000Y-116168214D01*
X96722619Y-116120595D01*
X96817857Y-116072976D01*
X96913095Y-116072976D01*
X97055952Y-116120595D01*
X97627380Y-116692023D01*
X97627380Y-116072976D01*
X96627380Y-115739642D02*
X96627380Y-115120595D01*
X97008333Y-115453928D01*
X97008333Y-115311071D01*
X97055952Y-115215833D01*
X97103571Y-115168214D01*
X97198809Y-115120595D01*
X97436904Y-115120595D01*
X97532142Y-115168214D01*
X97579761Y-115215833D01*
X97627380Y-115311071D01*
X97627380Y-115596785D01*
X97579761Y-115692023D01*
X97532142Y-115739642D01*
X126927142Y-82177142D02*
X126879523Y-82224761D01*
X126736666Y-82272380D01*
X126641428Y-82272380D01*
X126498571Y-82224761D01*
X126403333Y-82129523D01*
X126355714Y-82034285D01*
X126308095Y-81843809D01*
X126308095Y-81700952D01*
X126355714Y-81510476D01*
X126403333Y-81415238D01*
X126498571Y-81320000D01*
X126641428Y-81272380D01*
X126736666Y-81272380D01*
X126879523Y-81320000D01*
X126927142Y-81367619D01*
X127308095Y-81367619D02*
X127355714Y-81320000D01*
X127450952Y-81272380D01*
X127689047Y-81272380D01*
X127784285Y-81320000D01*
X127831904Y-81367619D01*
X127879523Y-81462857D01*
X127879523Y-81558095D01*
X127831904Y-81700952D01*
X127260476Y-82272380D01*
X127879523Y-82272380D01*
X128260476Y-81367619D02*
X128308095Y-81320000D01*
X128403333Y-81272380D01*
X128641428Y-81272380D01*
X128736666Y-81320000D01*
X128784285Y-81367619D01*
X128831904Y-81462857D01*
X128831904Y-81558095D01*
X128784285Y-81700952D01*
X128212857Y-82272380D01*
X128831904Y-82272380D01*
X130102142Y-71237142D02*
X130054523Y-71284761D01*
X129911666Y-71332380D01*
X129816428Y-71332380D01*
X129673571Y-71284761D01*
X129578333Y-71189523D01*
X129530714Y-71094285D01*
X129483095Y-70903809D01*
X129483095Y-70760952D01*
X129530714Y-70570476D01*
X129578333Y-70475238D01*
X129673571Y-70380000D01*
X129816428Y-70332380D01*
X129911666Y-70332380D01*
X130054523Y-70380000D01*
X130102142Y-70427619D01*
X130483095Y-70427619D02*
X130530714Y-70380000D01*
X130625952Y-70332380D01*
X130864047Y-70332380D01*
X130959285Y-70380000D01*
X131006904Y-70427619D01*
X131054523Y-70522857D01*
X131054523Y-70618095D01*
X131006904Y-70760952D01*
X130435476Y-71332380D01*
X131054523Y-71332380D01*
X132006904Y-71332380D02*
X131435476Y-71332380D01*
X131721190Y-71332380D02*
X131721190Y-70332380D01*
X131625952Y-70475238D01*
X131530714Y-70570476D01*
X131435476Y-70618095D01*
X96505833Y-59807142D02*
X96458214Y-59854761D01*
X96315357Y-59902380D01*
X96220119Y-59902380D01*
X96077261Y-59854761D01*
X95982023Y-59759523D01*
X95934404Y-59664285D01*
X95886785Y-59473809D01*
X95886785Y-59330952D01*
X95934404Y-59140476D01*
X95982023Y-59045238D01*
X96077261Y-58950000D01*
X96220119Y-58902380D01*
X96315357Y-58902380D01*
X96458214Y-58950000D01*
X96505833Y-58997619D01*
X96982023Y-59902380D02*
X97172500Y-59902380D01*
X97267738Y-59854761D01*
X97315357Y-59807142D01*
X97410595Y-59664285D01*
X97458214Y-59473809D01*
X97458214Y-59092857D01*
X97410595Y-58997619D01*
X97362976Y-58950000D01*
X97267738Y-58902380D01*
X97077261Y-58902380D01*
X96982023Y-58950000D01*
X96934404Y-58997619D01*
X96886785Y-59092857D01*
X96886785Y-59330952D01*
X96934404Y-59426190D01*
X96982023Y-59473809D01*
X97077261Y-59521428D01*
X97267738Y-59521428D01*
X97362976Y-59473809D01*
X97410595Y-59426190D01*
X97458214Y-59330952D01*
X99352142Y-53684166D02*
X99399761Y-53731785D01*
X99447380Y-53874642D01*
X99447380Y-53969880D01*
X99399761Y-54112738D01*
X99304523Y-54207976D01*
X99209285Y-54255595D01*
X99018809Y-54303214D01*
X98875952Y-54303214D01*
X98685476Y-54255595D01*
X98590238Y-54207976D01*
X98495000Y-54112738D01*
X98447380Y-53969880D01*
X98447380Y-53874642D01*
X98495000Y-53731785D01*
X98542619Y-53684166D01*
X98875952Y-53112738D02*
X98828333Y-53207976D01*
X98780714Y-53255595D01*
X98685476Y-53303214D01*
X98637857Y-53303214D01*
X98542619Y-53255595D01*
X98495000Y-53207976D01*
X98447380Y-53112738D01*
X98447380Y-52922261D01*
X98495000Y-52827023D01*
X98542619Y-52779404D01*
X98637857Y-52731785D01*
X98685476Y-52731785D01*
X98780714Y-52779404D01*
X98828333Y-52827023D01*
X98875952Y-52922261D01*
X98875952Y-53112738D01*
X98923571Y-53207976D01*
X98971190Y-53255595D01*
X99066428Y-53303214D01*
X99256904Y-53303214D01*
X99352142Y-53255595D01*
X99399761Y-53207976D01*
X99447380Y-53112738D01*
X99447380Y-52922261D01*
X99399761Y-52827023D01*
X99352142Y-52779404D01*
X99256904Y-52731785D01*
X99066428Y-52731785D01*
X98971190Y-52779404D01*
X98923571Y-52827023D01*
X98875952Y-52922261D01*
X67602142Y-58981666D02*
X67649761Y-59029285D01*
X67697380Y-59172142D01*
X67697380Y-59267380D01*
X67649761Y-59410238D01*
X67554523Y-59505476D01*
X67459285Y-59553095D01*
X67268809Y-59600714D01*
X67125952Y-59600714D01*
X66935476Y-59553095D01*
X66840238Y-59505476D01*
X66745000Y-59410238D01*
X66697380Y-59267380D01*
X66697380Y-59172142D01*
X66745000Y-59029285D01*
X66792619Y-58981666D01*
X66697380Y-58648333D02*
X66697380Y-57981666D01*
X67697380Y-58410238D01*
X68130833Y-46557142D02*
X68083214Y-46604761D01*
X67940357Y-46652380D01*
X67845119Y-46652380D01*
X67702261Y-46604761D01*
X67607023Y-46509523D01*
X67559404Y-46414285D01*
X67511785Y-46223809D01*
X67511785Y-46080952D01*
X67559404Y-45890476D01*
X67607023Y-45795238D01*
X67702261Y-45700000D01*
X67845119Y-45652380D01*
X67940357Y-45652380D01*
X68083214Y-45700000D01*
X68130833Y-45747619D01*
X68987976Y-45652380D02*
X68797500Y-45652380D01*
X68702261Y-45700000D01*
X68654642Y-45747619D01*
X68559404Y-45890476D01*
X68511785Y-46080952D01*
X68511785Y-46461904D01*
X68559404Y-46557142D01*
X68607023Y-46604761D01*
X68702261Y-46652380D01*
X68892738Y-46652380D01*
X68987976Y-46604761D01*
X69035595Y-46557142D01*
X69083214Y-46461904D01*
X69083214Y-46223809D01*
X69035595Y-46128571D01*
X68987976Y-46080952D01*
X68892738Y-46033333D01*
X68702261Y-46033333D01*
X68607023Y-46080952D01*
X68559404Y-46128571D01*
X68511785Y-46223809D01*
M02*
