M48
; DRILL file {KiCad 5.1.5+dfsg1-2build2} date Di 01 Dez 2020 23:40:48 CET
; FORMAT={-:-/ absolute / inch / decimal}
; #@! TF.CreationDate,2020-12-01T23:40:48+01:00
; #@! TF.GenerationSoftware,Kicad,Pcbnew,5.1.5+dfsg1-2build2
; #@! TF.FileFunction,Plated,1,4,PTH
FMAT,2
INCH
T1C0.0157
T2C0.0197
T3C0.0315
T4C0.0350
T5C0.0354
T6C0.0390
T7C0.0394
T8C0.0512
T9C0.0791
T10C0.1260
%
G90
G05
T1
X1.5724Y-1.7406
X1.5724Y-1.8406
X1.5724Y-1.9406
X1.5724Y-2.0406
X1.5724Y-2.1406
X1.5724Y-2.2406
X1.5724Y-2.3406
X1.5724Y-2.4406
X1.5724Y-2.5406
X1.5724Y-2.6406
X1.5724Y-2.7406
X1.5724Y-2.8406
X1.5724Y-2.9406
X1.5724Y-3.0406
X1.5724Y-3.1406
X1.5724Y-3.2406
X1.5724Y-3.3406
X1.5724Y-3.4406
X1.5724Y-3.5406
X1.5724Y-3.6406
X1.5724Y-3.7406
X1.5724Y-3.8406
X1.5724Y-3.9406
X1.5724Y-4.0406
X1.5724Y-4.1406
X1.5724Y-4.2406
X1.5724Y-4.3406
X1.5724Y-4.4406
X1.5724Y-4.5406
X1.5724Y-4.6406
X1.5724Y-4.7406
X1.5724Y-4.8406
X1.5724Y-4.9406
X1.5724Y-5.0406
X1.5724Y-5.1406
X1.5724Y-5.2406
X1.5724Y-5.3406
X1.5724Y-5.4406
X1.5724Y-5.5406
X1.7724Y-4.7406
X1.8224Y-4.4406
X1.8474Y-4.8406
X1.8724Y-4.7406
X1.9224Y-4.4656
X1.9474Y-4.8406
X1.9724Y-4.2906
X1.9724Y-4.7406
X2.0224Y-4.4406
X2.0224Y-5.0156
X2.0474Y-4.8406
X2.1224Y-4.4656
X2.1474Y-4.7406
X2.1724Y-4.2906
X2.2224Y-4.4406
X2.2474Y-4.8406
X2.3224Y-4.4656
X2.3474Y-4.7406
X2.3724Y-4.2906
X2.4224Y-4.4406
X2.4474Y-4.8406
X2.5224Y-4.4656
X2.5474Y-4.7406
X2.5724Y-4.2906
X2.6224Y-1.8156
X2.6224Y-4.4406
X2.6474Y-2.0156
X2.6474Y-4.8406
X2.6724Y-4.2906
X2.6772Y-5.2756
X2.7224Y-4.4656
X2.7474Y-2.3406
X2.7474Y-4.7406
X2.8224Y-4.4406
X2.8474Y-4.8406
X2.8724Y-4.2906
X2.9224Y-2.2406
X2.9224Y-4.4656
X2.9474Y-4.7406
X3.0224Y-4.4406
X3.0315Y-5.1969
X3.0724Y-4.2906
X3.1102Y-5.2906
X3.1224Y-4.4656
X3.1474Y-4.7406
X3.2224Y-4.4406
X3.2724Y-4.2906
X3.3071Y-5.1575
X3.3224Y-4.4656
X3.3224Y-5.2656
X3.3465Y-5.1969
X3.3474Y-4.7406
X3.3974Y-4.9656
X3.4224Y-4.4406
X3.4974Y-4.3906
X3.4974Y-4.7406
X3.4974Y-4.8906
X3.4974Y-4.9656
X3.4974Y-5.0156
X3.4974Y-5.0656
X3.4974Y-5.1156
X3.4974Y-5.2406
X3.6474Y-4.8156
X3.6724Y-4.3906
X3.6974Y-4.4656
X3.7224Y-4.3906
X3.7474Y-2.3406
X3.8189Y-4.8819
X3.8224Y-5.0906
X3.8724Y-1.7406
X3.8724Y-2.3406
X3.8724Y-5.0406
X3.9224Y-2.1656
X3.9224Y-4.4656
X3.9224Y-4.9906
X3.9474Y-2.2656
X3.9724Y-4.9406
X4.0724Y-4.5656
X4.0724Y-4.7156
X4.0724Y-5.2656
X4.2724Y-4.2906
X4.2724Y-4.7156
X4.3724Y-5.2656
X4.4724Y-4.2906
X4.4724Y-4.7156
X4.6724Y-4.2906
X4.6724Y-4.7156
X4.6724Y-5.2656
X4.7638Y-2.5197
X4.7724Y-4.2906
X4.8224Y-4.6156
X4.9606Y-2.874
X4.9724Y-5.2656
X5.0787Y-2.7953
X5.0787Y-2.874
X5.081Y-3.2283
X5.1575Y-3.1496
X5.4224Y-1.7406
X5.4224Y-1.8406
X5.4224Y-1.9406
X5.4224Y-2.0406
X5.4224Y-2.1406
X5.4224Y-2.2406
X5.4224Y-2.3406
X5.4224Y-2.4406
X5.4224Y-2.5406
X5.4224Y-2.6406
X5.4224Y-2.7406
X5.4224Y-2.8406
X5.4224Y-2.9406
X5.4224Y-3.0406
X5.4224Y-3.1406
X5.4224Y-3.2406
X5.4224Y-3.3406
X5.4224Y-3.4406
X5.4224Y-3.5406
X5.4224Y-3.6406
X5.4224Y-3.7406
X5.4224Y-3.8406
X5.4224Y-3.9406
X5.4224Y-4.0406
X5.4224Y-4.1406
X5.4224Y-4.2406
X5.4224Y-4.3406
X5.4224Y-4.4406
X5.4224Y-4.5406
X5.4224Y-4.6406
X5.4224Y-4.7406
X5.4224Y-4.8406
X5.4224Y-4.9406
X5.4224Y-5.0406
X5.4224Y-5.1406
X5.4224Y-5.2406
X5.4224Y-5.3406
X5.4224Y-5.4406
X5.4224Y-5.5406
T2
X5.1417Y-1.811
X5.1694Y-1.7442
X5.1694Y-1.8778
X5.2362Y-1.7165
X5.2362Y-1.9055
X5.303Y-1.7442
X5.303Y-1.8778
X5.3307Y-1.811
X5.1417Y-5.4331
X5.1694Y-5.3663
X5.1694Y-5.4999
X5.2362Y-5.3386
X5.2362Y-5.5276
X5.303Y-5.3663
X5.303Y-5.4999
X5.3307Y-5.4331
X1.6772Y-1.811
X1.7048Y-1.7442
X1.7048Y-1.8778
X1.7717Y-1.7165
X1.7717Y-1.9055
X1.8385Y-1.7442
X1.8385Y-1.8778
X1.8661Y-1.811
X1.6772Y-5.4331
X1.7048Y-5.3663
X1.7048Y-5.4999
X1.7717Y-5.3386
X1.7717Y-5.5276
X1.8385Y-5.3663
X1.8385Y-5.4999
X1.8661Y-5.4331
T3
X1.8224Y-2.5406
X1.8224Y-2.7374
X1.8224Y-2.9906
X1.8224Y-3.1874
X1.8224Y-3.4406
X1.8224Y-3.6374
X1.8224Y-3.8906
X1.8224Y-4.0874
X2.8256Y-2.4406
X3.0224Y-2.4406
T4
X2.1724Y-2.1906
X2.2724Y-2.1906
X4.1224Y-2.1906
X4.2224Y-2.1906
T5
X3.8724Y-5.4406
X3.9724Y-5.4406
X4.4724Y-5.4406
X4.5724Y-5.4406
X4.1724Y-5.4406
X4.2724Y-5.4406
X4.7724Y-5.4406
X4.8724Y-5.4406
X3.5724Y-5.4406
X3.6724Y-5.4406
T6
X2.3224Y-5.4386
X2.4996Y-5.4386
X2.9953Y-5.4406
X3.1724Y-5.4406
T7
X3.7724Y-3.1906
X3.9724Y-2.9906
X2.8224Y-2.5906
X2.8224Y-2.6906
X2.8224Y-2.9906
X3.0224Y-2.5906
X3.0224Y-2.6906
X3.0224Y-2.9906
X4.1224Y-3.4406
X4.1224Y-3.6406
X4.2224Y-3.4406
X4.2224Y-3.6406
X4.5224Y-3.4406
X4.5224Y-3.6406
X4.1224Y-2.9906
X4.1224Y-3.1906
X4.2224Y-2.9906
X4.2224Y-3.1906
X4.5224Y-2.9906
X4.5224Y-3.1906
X3.2724Y-2.5906
X3.2724Y-2.6906
X3.2724Y-2.9906
X3.4724Y-2.5906
X3.4724Y-2.6906
X3.4724Y-2.9906
X3.4224Y-3.6406
X3.6224Y-3.4406
X2.8724Y-3.8906
X2.8724Y-4.0906
X3.1724Y-3.8906
X3.1724Y-4.0906
X3.2724Y-3.8906
X3.2724Y-4.0906
X1.9724Y-3.8906
X1.9724Y-4.0906
X2.0724Y-3.8906
X2.0724Y-4.0906
X2.3724Y-3.8906
X2.3724Y-4.0906
X3.4224Y-4.0906
X3.6224Y-3.8906
X3.7724Y-4.0906
X3.9724Y-3.8906
X3.7724Y-2.7406
X3.9724Y-2.5406
X2.8724Y-3.4406
X2.8724Y-3.6406
X3.1724Y-3.4406
X3.1724Y-3.6406
X3.2724Y-3.4406
X3.2724Y-3.6406
X1.7724Y-4.9406
X1.7724Y-5.0406
X1.7724Y-5.1406
X1.8724Y-4.9406
X1.8724Y-5.0406
X1.8724Y-5.1406
X1.9724Y-2.5406
X1.9724Y-2.7406
X2.0724Y-2.5406
X2.0724Y-2.7406
X2.3724Y-2.5406
X2.3724Y-2.7406
X2.9974Y-1.9406
X2.9974Y-2.1406
X3.0724Y-1.8156
X3.0724Y-2.2656
X3.5224Y-1.8156
X3.5224Y-2.2656
X3.5974Y-1.9406
X3.5974Y-2.1406
X4.1224Y-3.8906
X4.1224Y-4.0906
X4.2224Y-3.8906
X4.2224Y-4.0906
X4.5224Y-3.8906
X4.5224Y-4.0906
X1.9724Y-2.9906
X1.9724Y-3.1906
X2.0724Y-2.9906
X2.0724Y-3.1906
X2.3724Y-2.9906
X2.3724Y-3.1906
X4.1224Y-2.5406
X4.1224Y-2.7406
X4.2224Y-2.5406
X4.2224Y-2.7406
X4.5224Y-2.5406
X4.5224Y-2.7406
X3.7724Y-3.6406
X3.9724Y-3.4406
X1.9724Y-3.4406
X1.9724Y-3.6406
X2.0724Y-3.4406
X2.0724Y-3.6406
X2.3724Y-3.4406
X2.3724Y-3.6406
T8
X2.2728Y-5.3406
X2.5488Y-5.3406
X2.9457Y-5.3425
X3.2217Y-5.3425
T9
X2.0724Y-1.9906
X2.4724Y-1.9906
X4.0224Y-1.9906
X4.4224Y-1.9906
T10
X5.2362Y-1.811
X5.2362Y-5.4331
X1.7717Y-1.811
X1.7717Y-5.4331
T3
G00X4.6835Y-2.0575
M15
G01X4.6835Y-2.1441
M16
G05
G00X4.9157Y-1.9906
M15
G01X4.8291Y-1.9906
M16
G05
G00X4.9236Y-2.2189
M15
G01X4.8213Y-2.2189
M16
G05
T0
M30
